<?xml version="1.0" encoding="utf-8"?>
<!-- Generator: Adobe Illustrator 28.2.0, SVG Export Plug-In . SVG Version: 6.00 Build 0)  -->
<svg version="1.1" id="Layer_1" xmlns="http://www.w3.org/2000/svg" xmlns:xlink="http://www.w3.org/1999/xlink" x="0px" y="0px"
	 viewBox="0 0 300 400" style="enable-background:new 0 0 300 400;" xml:space="preserve">
<style type="text/css">
	.st0{fill:#FFEED0;}
	.st1{fill:#603A17;stroke:#A77D52;stroke-miterlimit:10;}
	.st2{fill:#603A17;stroke:#603A17;stroke-miterlimit:10;}
	.st3{fill:#010101;}
	.st4{fill:#FFFFFF;}
	.st5{fill:none;stroke:#010101;stroke-miterlimit:10;}
	.st6{opacity:0.59;fill:#8564AB;}
	.st7{fill:#603A17;}
	.st8{fill:#A77D52;}
	.st9{fill:#FFFFFF;stroke:#FAED24;stroke-miterlimit:10;}
	.st10{fill:#FFD65B;stroke:#FBD622;stroke-miterlimit:10;}
	.st11{fill:#FFFFFF;stroke:#FCD322;stroke-miterlimit:10;}
	.st12{fill:#FFFFFF;stroke:#FBD81F;stroke-miterlimit:10;}
	.st13{fill:#754D25;}
</style>
<rect class="st0" width="300" height="400"/>
<path class="st1" d="M152.2,143.3c1-3.1,3.9-4.7,6.2-4.1c1.5,0.4,3.1,1.8,3.2,3.5c0.1,1.4-1.4,2.9-4.4,5.7c-1.1,1-3,2.8-5.4,5.1
	c-2.2-2.8-4.1-4.9-5.4-6.3c-1.9-2-3.1-3-3-4.5c0.1-1.6,1.5-3.1,3-3.5C148.5,138.6,151.2,140.2,152.2,143.3z"/>
<ellipse class="st2" cx="83.7" cy="146.5" rx="35.4" ry="30.7"/>
<ellipse class="st2" cx="85.7" cy="214" rx="36.1" ry="43.4"/>
<g>
	<g>
		<g>
			<circle class="st3" cx="72.1" cy="143.5" r="3.8"/>
			<ellipse class="st4" cx="72.1" cy="141.3" rx="1.6" ry="0.5"/>
		</g>
		<path class="st5" d="M89.1,151.7c-0.8,1.3-2.8,2.2-4.9,2.2c-2.2,0-4.1-0.9-4.9-2.2"/>
		<g>
			<circle class="st3" cx="95" cy="142.7" r="3.8"/>
			<ellipse class="st4" cx="95" cy="140.5" rx="1.6" ry="0.5"/>
		</g>
	</g>
	<ellipse class="st6" cx="66.5" cy="150.4" rx="6" ry="1.6"/>
	<ellipse class="st6" cx="99.4" cy="149.3" rx="6" ry="1.6"/>
</g>
<circle class="st7" cx="107.7" cy="123.2" r="9.3"/>
<circle class="st7" cx="60.9" cy="121.8" r="9.3"/>
<ellipse class="st8" cx="107.5" cy="123.3" rx="5.5" ry="6.8"/>
<ellipse class="st8" cx="60.5" cy="123.5" rx="5.5" ry="6.8"/>
<path class="st2" d="M37.8,221.3c-1.8-2.6-2.6-4-3.6-6c-3.3-7.3-1.7-11.3-5.3-14.7c-2.6-2.5-5.8-2.7-6.7-2.7c-0.4,0-6.6-0.1-8,4
	c-1.1,3.1,1.4,6.7,4,8c3.7,1.9,7.9-0.4,8,0c0.2,0.6-8.1,6.7-13.4,4c-5.8-3-6.6-15.9,0-21.4c5.5-4.5,14.5-2.7,18.7,1.3
	c0.4,0.4,0.4,0.4,6.7,12c1.6,3,2.1,3.9,2.7,5.3c1.7,4.2,1.1,5.4,2.7,9.3c0.9,2.3,1.9,4.6,4,6.7c2.7,2.6,4.4,2,6.7,4
	c3.8,3.4,4.8,10,3.3,10.9C55.1,243.8,43.6,230,37.8,221.3z"/>
<path class="st8" d="M15.5,204.6"/>
<path class="st2" d="M108.2,199.4c2.5-2,3.7-3,5.7-4c7-3.9,11.1-2.7,14.2-6.5c0.8-1,0.7-1.4,1.1-3.3c0,0,0.1-1.5,1-3.5
	c1.4-3.3,10.3-4.4,11.5-2c1,2-3.1,6.7-6.8,11c0,0.1-0.1,0.1-0.1,0.1c-0.3,0.4-1.3,1-11.3,7.5c-2.9,1.9-3.7,2.4-5.1,3.1
	c-4.1,2-5.3,1.5-9.1,3.4c-2.2,1.1-4.5,2.2-6.3,4.5c-2.3,2.9-1.6,4.5-3.4,7c-3,4.1-9.6,5.6-10.6,4.2
	C87.2,218.4,100,205.9,108.2,199.4z"/>
<g>
	<ellipse class="st9" cx="136.5" cy="169.6" rx="2.9" ry="13"/>
	<path class="st10" d="M139.4,175.9c-0.3,4.1,0.2,3.9,0,7.2c-0.3,4-1.4,11-3.1,11.1c-1.6,0.1-3.5-6.3-4-11.1c-0.1-1.3,0-0.5,0-7.2
		c0-5.8-0.2-7.1,0.9-8.1c1.6-1.5,4.8-1.5,6.3,0C140.6,169,139.7,170.7,139.4,175.9z"/>
	<path class="st11" d="M143.9,174.1c-3.1-1-6.4-6.2-5.4-7.2c0.6-0.7,3.1,0.4,4.5,1.8c1.8,1.8,2.6,4.8,1.8,5.4
		C144.6,174.2,144.3,174.2,143.9,174.1z"/>
	<path class="st12" d="M129,173.9c0-3.2,3.9-8,5.2-7.4c0.8,0.4,0.6,3-0.3,4.8c-1.2,2.3-3.8,3.9-4.6,3.4
		C129.1,174.6,129,174.3,129,173.9z"/>
	<path class="st11" d="M135.2,175.1c-1.6-2.8-0.4-8.9,1-8.9c0.9,0,2,2.4,2,4.4c0.1,2.6-1.5,5.3-2.4,5.2
		C135.6,175.6,135.4,175.4,135.2,175.1z"/>
	<ellipse class="st13" cx="135.8" cy="194.3" rx="1.3" ry="0.9"/>
</g>
<g>
	<ellipse class="st2" cx="214.4" cy="172.9" rx="35.4" ry="30.7"/>
	<ellipse class="st2" cx="212.4" cy="240.4" rx="36.1" ry="43.4"/>
	<g>
		<g>
			<g>
				<circle class="st3" cx="226" cy="169.8" r="3.8"/>
				<ellipse class="st4" cx="226" cy="167.7" rx="1.6" ry="0.5"/>
			</g>
			<path class="st5" d="M209,178.1c0.8,1.3,2.8,2.2,4.9,2.2c2.2,0,4.1-0.9,4.9-2.2"/>
			<g>
				<circle class="st3" cx="203.1" cy="169.1" r="3.8"/>
				<ellipse class="st4" cx="203.1" cy="166.9" rx="1.6" ry="0.5"/>
			</g>
		</g>
		<ellipse class="st6" cx="231.6" cy="176.8" rx="6" ry="1.6"/>
		<ellipse class="st6" cx="198.7" cy="175.7" rx="6" ry="1.6"/>
	</g>
	<circle class="st7" cx="190.4" cy="149.5" r="9.3"/>
	<circle class="st7" cx="237.1" cy="148.2" r="9.3"/>
	<ellipse class="st8" cx="190.6" cy="149.7" rx="5.5" ry="6.8"/>
	<ellipse class="st8" cx="237.5" cy="149.9" rx="5.5" ry="6.8"/>
	<path class="st2" d="M260.3,247.7c1.8-2.6,2.6-4,3.6-6c3.3-7.3,1.7-11.3,5.3-14.7c2.6-2.5,5.8-2.7,6.7-2.7c0.4,0,6.6-0.1,8,4
		c1.1,3.1-1.4,6.7-4,8c-3.7,1.9-7.9-0.4-8,0c-0.2,0.6,8.1,6.7,13.4,4c5.8-3,6.6-15.9,0-21.4c-5.5-4.5-14.5-2.7-18.7,1.3
		c-0.4,0.4-0.4,0.4-6.7,12c-1.6,3-2.1,3.9-2.7,5.3c-1.7,4.2-1.1,5.4-2.7,9.3c-0.9,2.3-1.9,4.6-4,6.7c-2.7,2.6-4.4,2-6.7,4
		c-3.8,3.4-4.8,10-3.3,10.9C243,270.2,254.5,256.4,260.3,247.7z"/>
	<path class="st2" d="M189.9,225.8c-2.5-2-3.7-3-5.7-4c-7-3.9-11.1-2.7-14.2-6.5c-0.8-1-0.7-1.4-1.1-3.3c0,0-0.1-1.5-1-3.5
		c-1.4-3.3-10.3-4.4-11.5-2c-1,2,3.1,6.7,6.8,11c0,0.1,0.1,0.1,0.1,0.1c0.3,0.4,1.3,1,11.3,7.5c2.9,1.9,3.7,2.4,5.1,3.1
		c4.1,2,5.3,1.5,9.1,3.4c2.2,1.1,4.5,2.2,6.3,4.5c2.3,2.9,1.6,4.5,3.4,7c3,4.1,9.6,5.6,10.6,4.2
		C210.9,244.8,198.1,232.3,189.9,225.8z"/>
	<g>
		<ellipse class="st9" cx="161.6" cy="196" rx="2.9" ry="13"/>
		<path class="st10" d="M158.7,202.3c0.3,4.1-0.2,3.9,0,7.2c0.3,4,1.4,11,3.1,11.1c1.6,0.1,3.5-6.3,4-11.1c0.1-1.3,0-0.5,0-7.2
			c0-5.8,0.2-7.1-0.9-8.1c-1.6-1.5-4.8-1.5-6.3,0C157.5,195.4,158.4,197.1,158.7,202.3z"/>
		<path class="st11" d="M154.2,200.5c3.1-1,6.4-6.2,5.4-7.2c-0.6-0.7-3.1,0.4-4.5,1.8c-1.8,1.8-2.6,4.8-1.8,5.4
			C153.5,200.6,153.8,200.6,154.2,200.5z"/>
		<path class="st12" d="M169.1,200.3c0-3.2-3.9-8-5.2-7.4c-0.8,0.4-0.6,3,0.3,4.8c1.2,2.3,3.8,3.9,4.6,3.4
			C169,201,169.1,200.7,169.1,200.3z"/>
		<path class="st11" d="M162.9,201.4c1.6-2.8,0.4-8.9-1-8.9c-0.9,0-2,2.4-2,4.4c-0.1,2.6,1.5,5.3,2.4,5.2
			C162.5,202,162.7,201.8,162.9,201.4z"/>
		<ellipse class="st13" cx="162.3" cy="220.7" rx="1.3" ry="0.9"/>
	</g>
</g>
</svg>
