<?xml version="1.0" encoding="utf-8"?>
<!-- Generator: Adobe Illustrator 28.2.0, SVG Export Plug-In . SVG Version: 6.00 Build 0)  -->
<svg version="1.1" id="Layer_1" xmlns="http://www.w3.org/2000/svg" xmlns:xlink="http://www.w3.org/1999/xlink" x="0px" y="0px"
	 viewBox="0 0 1602 1228" style="enable-background:new 0 0 1602 1228;" xml:space="preserve">
<style type="text/css">
	.st0{fill:#FF19CF;}
	.st1{filter:url(#bc95b9ce-1d43-4620-a26d-8f80bf6b8b7d);}
	.st2{mask:url(#f99ced66-6777-4af5-97ca-66b1c00f65da_00000026165704891955240640000017544660781727282349_);}
	.st3{opacity:0.95;}
	.st4{fill:#FFFFFF;}
	.st5{fill:#AAF12F;}
	.st6{filter:url(#ea350442-1f13-4bd4-aa59-7e819dee2ae5);}
	.st7{mask:url(#b0829df3-3676-48ac-a96f-c8377bad6574_00000093151626247450956560000009858430267116690607_);}
</style>
<filter  color-interpolation-filters="sRGB" filterUnits="userSpaceOnUse" height="114" id="ea350442-1f13-4bd4-aa59-7e819dee2ae5" width="606" x="69" y="316">
	<feFlood  flood-color="#fff" result="bg"></feFlood>
	<feBlend  in="SourceGraphic" in2="bg" mode="normal"></feBlend>
</filter>
<filter  color-interpolation-filters="sRGB" filterUnits="userSpaceOnUse" height="145" id="bc95b9ce-1d43-4620-a26d-8f80bf6b8b7d" width="555" x="81" y="198">
	<feFlood  flood-color="#fff" result="bg"></feFlood>
	<feBlend  in="SourceGraphic" in2="bg" mode="normal"></feBlend>
</filter>
<g>
	<g id="a0f7b35b-6446-4b10-88a5-73e415475971">
		<path class="st0" d="M647.9,558.9c-5.7,15.5-17.7,48.3-17.7,56.5c0,6,4.1,9.2,9.2,9.2c1.4-0.1,2.6,1,2.6,2.4c0,0,0,0.1,0,0.1
			c0,1.5-1.2,2.6-2.6,2.6l0,0c-9.1,0-14.5-6.1-14.5-14.4c0-9.5,12.4-42.6,18.1-58.3c5.4-14.9,9.4-24.7,9.4-33.8
			c0-8.7-4.1-12.3-11.9-12.3c-9.6,0-19.8,11.3-26.1,21.2c-8.7,29-10.3,34.1-22.3,68.5c-0.4,1.1-1.4,1.9-2.6,1.9
			c-1.5,0-2.8-1.2-2.8-2.8c0-0.3,0.1-0.6,0.2-0.9c7.5-21.1,15.3-44.8,21.4-65.2c1.2-3.7,1.9-7.6,2-11.5c0-6.7-2.4-12.1-8.3-12.1
			c-11,0-25.1,20.1-35.1,34.6l-9.9,30.4c-7,21.7-10.6,28.8-19.3,28.8c-4.9,0-7-3.7-7-8.3c0.1-7.4,7.1-18.9,18.8-34.1
			c0.8-1,12.2-18.8,12.4-19.3l10.3-31.4c-11,7.9-24.5,18.6-40,18.6c-12.3,0-21.1-8.2-19.8-21c0.3-1.5,1.7-2.5,3.3-2.3
			c1.4,0.3,2.4,1.5,2.3,2.9c0,9.9,5.5,14.8,14.3,14.8c12.1,0,26-9.9,37.1-18c2.4-1.7,4.8-3.3,6.6-4.6c0.5-0.4,1-0.5,1.6-0.5
			c1.5,0,2.8,1.2,2.8,2.7c0,0.3,0,0.6-0.2,0.9l-7.4,22.6c10.7-13.6,18.6-22.6,29.6-22.6c8.6,0,13.6,7.7,13.6,16.9
			c7.1-8.7,15.6-15.6,24.8-15.6c11.2,0,17,5.9,17,17.4C657.8,532.7,653.4,543.5,647.9,558.9z M554.8,563.1c-0.2,0.5-0.6,1-0.9,1.5
			c-12,18-17.7,23.5-17.8,31.4c0,1.3,0.5,2.1,1.4,2.1c5.4,0,8.2-6.7,14-24.8L554.8,563.1z"/>
		<path class="st0" d="M713.1,574.4c0,0.4-0.1,0.8-0.3,1.2l-0.1,0.4c-5,11.1-12.1,27.3-24,27.3c-6.3,0-9.5-4.6-9.5-11.1
			c-5.3,7.4-10.8,11.1-16.5,11.1c-7.4,0-10.8-6.3-10.8-14.3c0-17.3,13.3-48.2,29.2-48.2c5.5,0,9.6,2.2,12,7c0.8-2.2,1.6-4.2,2.2-6
			c0.4-1.1,1.5-1.7,2.6-1.7c1.5,0,2.7,1.2,2.7,2.7c0,0.4-0.1,0.7-0.2,1l-6.6,17.7c-4.8,13.3-9.1,24.8-9.1,30.6c0,4,1.2,5.5,4,5.5
			c8.2,0,14.5-14.3,18.9-24l0.1-0.4c0.4-1,1.4-1.7,2.5-1.7c0.4,0,0.8,0.1,1.2,0.3C712.4,572.4,713.1,573.3,713.1,574.4z
			 M686.3,564.5l3.2-8.5c-0.3-6.1-3.7-9.6-8.5-9.6c-12.1,0.3-23.4,28.7-23.6,41.7c0,5.8,1.2,9.6,5.2,9.6
			C673.2,597.8,681,578,686.3,564.5z"/>
		<path class="st0" d="M761.7,574.4c0,0.4-0.1,0.8-0.3,1.2c-8.6,19.7-15.2,27.7-24.2,27.7h-0.1c-6.2,0-9.4-4.6-9.4-11.1
			c0-2.9,0.5-5.8,1.3-8.6c1.1-4.2,6.9-21.8,8.1-24.7c-10-3.3-11.5-3.8-14.4-5.3c-0.5,1.6-1.5,3.4-12,26.5c-0.4,0.9-1.3,1.6-2.4,1.6
			c-0.5,0-0.9-0.1-1.3-0.3c-0.9-0.5-1.5-1.4-1.6-2.5c0-0.4,0.1-0.8,0.3-1.2l10.6-23l1.6-4c-4-2.8-6.7-6.2-6.7-11.1
			c0-5.4,3.8-8.6,8-8.6c4.8,0,7.7,3.4,7.7,8.7c0,2.1-0.5,3.3-2.1,8.5c3.9,1.8,7.9,3.3,12,4.6c1.9,0.5,3.6,1.1,5,1.6
			c1.5,0.6,2.2,2.3,1.6,3.8c-1.7,4.4-8,23.2-8.8,26.5c-0.7,2.4-1.1,4.8-1.2,7.3c0,3.3,1.1,5.5,4,5.5c6.5,0,11.5-7.4,19-24.4
			c0.4-1,1.4-1.7,2.5-1.7c0.4,0,0.8,0.1,1.2,0.3C761,572.3,761.7,573.3,761.7,574.4z M719.2,536.8c-1.3-0.1-2.4,0.8-2.5,2.1
			c0,0.1,0,0.3,0,0.4c0.1,2.4,1.3,4.6,3.2,6.1c0.7-1.8,1.2-3.6,1.5-5.5C721.3,537.6,720.2,536.8,719.2,536.8z"/>
		<path class="st0" d="M748.5,603.2c-1.5-0.5-2.2-2.1-1.7-3.5c0,0,0,0,0,0c22-61.4,27.2-76,28.2-79.1c0.4-1,1.4-1.7,2.5-1.7
			c1.5-0.1,2.9,1.1,2.9,2.7c0,0.3,0,0.7-0.1,1c-11.5,32.4-19.4,54.9-28.3,78.8C751.5,602.8,750,603.5,748.5,603.2z M813.8,574.4
			c0,0.4-0.1,0.8-0.3,1.2c-6.3,14.1-13.3,27.7-24.3,27.7c-5.4,0-9.8-4.4-9.8-9.8c0-0.1,0-0.1,0-0.2c0.1-3,0.3-5.9,0.8-8.8
			c0.5-2.6,0.7-5.2,0.7-7.8c-0.1-3.4-1.3-5.9-5.8-5.9c-3.8,0-5.8,4-8.3,4c-2.9,0-3.6-2.9-1.6-4.9c1.7-1.7,13.9-12.4,31.4-28.5
			c0.5-0.5,1.2-0.7,1.9-0.7c1.6,0,2.8,1.2,2.9,2.8c0,0.8-0.4,1.5-0.9,2l-22.1,20.1c6.2,1,7.9,5.5,8.1,11.2c0,3-1.5,13.2-1.5,16.2
			c0,2.4,1.5,4.9,4.2,4.9c7.8,0,14.1-13.1,19.1-24.4c0.4-1,1.4-1.7,2.5-1.7c0.4,0,0.8,0.1,1.2,0.3
			C813.1,572.4,813.8,573.4,813.8,574.4z"/>
		<path class="st0" d="M867,574.4c0,0.4-0.1,0.8-0.3,1.2l-0.1,0.4c-5,11.1-12.1,27.3-24,27.3c-6.3,0-9.5-4.6-9.5-11.1
			c-5.3,7.4-10.8,11.1-16.5,11.1c-7.4,0-10.8-6.3-10.8-14.3c0-17.3,13.3-48.2,29.2-48.2c5.5,0,9.6,2.2,12,7c0.8-2.2,1.6-4.2,2.2-6
			c0.4-1.1,1.5-1.7,2.6-1.7c1.5,0,2.7,1.2,2.7,2.7c0,0.4-0.1,0.7-0.2,1l-6.6,17.7c-4.8,13.3-9.1,24.8-9.1,30.6c0,4,1.2,5.5,4,5.5
			c8.2,0,14.5-14.3,18.9-24l0.1-0.4c0.4-1,1.4-1.7,2.5-1.7c0.4,0,0.8,0.1,1.2,0.3C866.4,572.4,867,573.3,867,574.4z M840.2,564.5
			l3.2-8.5c-0.3-6.1-3.7-9.6-8.5-9.6c-12.1,0.3-23.4,28.7-23.6,41.7c0,5.8,1.2,9.6,5.1,9.6C827.2,597.8,835,578,840.2,564.5z"/>
		<path class="st0" d="M915.7,574.4c0,0.4-0.1,0.8-0.3,1.2c-8.6,19.7-15.2,27.7-24.2,27.7h-0.1c-6.2,0-9.4-4.6-9.4-11.1
			c0-2.9,0.5-5.8,1.3-8.6c1.1-4.2,6.9-21.8,8.1-24.7c-10-3.3-11.5-3.8-14.4-5.3c-0.5,1.6-1.5,3.4-12,26.5c-0.4,0.9-1.3,1.6-2.4,1.6
			c-0.5,0-0.9-0.1-1.3-0.3c-0.9-0.5-1.5-1.4-1.6-2.5c0-0.4,0.1-0.8,0.3-1.2l10.6-23l1.6-4c-4-2.8-6.7-6.2-6.7-11.1
			c0-5.4,3.8-8.6,8-8.6c4.8,0,7.7,3.4,7.7,8.7c0,2.1-0.5,3.3-2.1,8.5c3.9,1.8,7.9,3.3,12,4.6c1.9,0.5,3.6,1.1,5,1.6
			c1.5,0.6,2.2,2.3,1.6,3.8c-1.7,4.4-8,23.2-8.8,26.5c-0.7,2.4-1.1,4.8-1.2,7.3c0,3.3,1,5.5,4,5.5c6.5,0,11.5-7.4,19-24.4
			c0.4-1,1.4-1.7,2.5-1.7c0.4,0,0.8,0.1,1.2,0.3C915,572.3,915.6,573.3,915.7,574.4z M873.1,536.8c-1.3-0.1-2.4,0.8-2.5,2
			c0,0.2,0,0.3,0,0.5c0.1,2.4,1.3,4.6,3.2,6.1c0.7-1.8,1.2-3.6,1.4-5.5C875.2,537.6,874.2,536.8,873.1,536.8z"/>
		<path class="st0" d="M970,574.6c0,0.4-0.1,0.8-0.3,1.2c-8.1,19.2-19.1,31.6-38.4,37.2c-6.3,18.1-14.5,27.5-24,27.6
			c-7.9,0.1-13.1-5-13.1-12.8c0-8.3,6.5-14.4,22.3-17.3c3.3-0.5,6.9-1.2,10.4-2.1l3.3-9.5c-3,2.9-6.3,4.5-10,4.5
			c-11.2,0-14.4-7.5-14.4-14.1c0.3-6.1,3.3-13.3,8.5-26.8l7.4-20.1c0.4-1,1.4-1.7,2.5-1.7c1.5-0.1,2.7,1,2.8,2.5
			c0,0.4,0,0.8-0.2,1.2l-7.3,20.1c-5.8,16-8.1,20.1-8.1,24.8c0,3.8,1.2,8.6,8.7,8.6c7,0,15.5-14,20.7-29.2c1.7-5.1,0.9-2.8,9.8-26.1
			c0.4-1.1,1.4-1.8,2.5-1.8c1.7,0.1,3,1.6,2.9,3.2c0,0.2,0,0.4-0.1,0.6c-2.1,5.4-5.7,14.5-9.9,26l-10.6,30.1l-2,5.8
			c15.2-5.1,24.4-17.3,31-32.9c0.4-1,1.4-1.7,2.5-1.7c0.4,0,0.8,0.1,1.2,0.3C969.3,572.5,970,573.5,970,574.6z M924.8,614.6
			c-2.5,0.5-4.9,1.1-7.3,1.5c-12.1,2.1-17.3,5.5-17.8,11.6c0,4.6,3,7.5,7.5,7.4C914.5,634.9,920.5,627.9,924.8,614.6L924.8,614.6z"
			/>
		<path class="st0" d="M1026.8,574.4c0,0.4-0.1,0.8-0.3,1.2c-7.7,16.5-15,27.7-27.2,27.7c-6.2,0-9.8-4.2-9.8-11.6
			c-4.6,6.6-10,11.6-16.8,11.6c-7.4,0-10.8-6.3-10.8-14.3c0-17.3,13.2-48.2,29.2-48.2c5.9,0,9.8,2.6,11.9,6.7l2.5-6.9l7-20.2
			c0.4-1,1.4-1.7,2.5-1.7c1.5,0,2.8,1.2,2.8,2.8c0,0.3-0.1,0.6-0.1,0.9c-1.3,3.8-17,48.7-18.2,52.4c-2,6.1-4.4,13.9-4.4,17.3
			c0,3.2,1.2,5.5,4.2,5.5c9.5,0,15.8-11,22-24.5c0.5-1,1.5-1.6,2.6-1.6c0.4,0,0.7,0.1,1.1,0.3
			C1026.1,572.3,1026.8,573.3,1026.8,574.4z M996.5,564.5c1.2-2.8,2.1-5.4,3-7.5c0.1-0.3,0.1-0.6,0.1-0.9c-0.3-6.1-3.3-9.6-8.5-9.6
			c-12.1,0.4-23.4,28.7-23.6,41.7c0,5.8,1.2,9.6,5.2,9.6C983.4,597.8,991.2,578,996.5,564.5z"/>
		<path class="st0" d="M1038.6,603.4c-11,0-19.9-8.6-19.9-19.3c0.8-11.9,7.4-19.7,18-19.7c6.9,0,12.4,6.1,12.7,13.3
			c0.1,1.5-1.1,2.8-2.6,2.9s-2.8-1.1-2.9-2.6c0-0.1,0-0.2,0-0.3c-0.3-4.5-3.6-7.8-7-7.8c-7.3,0-12,6.1-12.6,14.1
			c0,8.1,6.7,13.7,14.4,13.7c10.7,0,18.4-7,18.6-18c-0.1-5.8-2.1-9.6-9.1-21.9c-0.9,0.9-1.8,1.9-2.6,3c-1,1.2-2.9,1.4-4.1,0.4
			c-0.6-0.6-1-1.4-0.9-2.2c0-0.6,0.3-1.2,0.7-1.7c1.6-1.8,2.9-3.3,4.5-4.9c-1.3-2.7-1.9-5.7-2-8.7c0-6.9,4.2-12.7,9.6-12.7
			c3.8,0,6.1,3,6.3,6.9c0,5.3-3.3,11.1-7.4,15.7c6.8,12.7,10.4,17.3,10.6,26.3C1062.5,594.2,1051.9,603.4,1038.6,603.4z M1053.9,538
			c0-1.8-1.5-1.5-2.8-0.1c-1.4,1.6-2.1,3.7-2,5.8c0,1.4,0.2,2.9,0.7,4.2C1051.9,545,1053.9,540.9,1053.9,538z"/>
		
			<image style="overflow:visible;enable-background:new    ;" width="1551" height="1141" xlink:href="58870179AE15B7C6.png"  transform="matrix(1 0 0 1 12 0)">
		</image>
		
			<image style="overflow:visible;enable-background:new    ;" width="1551" height="1141" xlink:href="58870179AE15B7CA.png"  transform="matrix(1 0 0 1 12 0)">
		</image>
		
			<image style="overflow:visible;enable-background:new    ;" width="1551" height="1141" xlink:href="58870179AE15B7CD.png"  transform="matrix(1 0 0 1 12 0)">
		</image>
		
			<image style="overflow:visible;enable-background:new    ;" width="1551" height="1141" xlink:href="58870179AE15B7CE.png"  transform="matrix(1 0 0 1 12 0)">
		</image>
		
			<image style="overflow:visible;enable-background:new    ;" width="1551" height="1141" xlink:href="58870179AE15B7CC.png"  transform="matrix(1 0 0 1 12 0)">
		</image>
		
			<image style="overflow:visible;enable-background:new    ;" width="1551" height="1141" xlink:href="58870179AE15B7CB.png"  transform="matrix(1 0 0 1 12 0)">
		</image>
		
			<image style="overflow:visible;enable-background:new    ;" width="1551" height="1141" xlink:href="58870179AE15B7C5.png"  transform="matrix(1 0 0 1 12 0)">
		</image>
		
			<image style="overflow:visible;enable-background:new    ;" width="1551" height="1141" xlink:href="58870179AE15B7C7.png"  transform="matrix(1 0 0 1 12 0)">
		</image>
		<path class="st0" d="M647.9,558.9c-5.7,15.5-17.7,48.3-17.7,56.5c0,6,4.1,9.2,9.2,9.2c1.4-0.1,2.6,1,2.6,2.4c0,0,0,0.1,0,0.1
			c0,1.5-1.2,2.6-2.6,2.6l0,0c-9.1,0-14.5-6.1-14.5-14.4c0-9.5,12.4-42.6,18.1-58.3c5.4-14.9,9.4-24.7,9.4-33.8
			c0-8.7-4.1-12.3-11.9-12.3c-9.6,0-19.8,11.3-26.1,21.2c-8.7,29-10.3,34.1-22.3,68.5c-0.4,1.1-1.4,1.9-2.6,1.9
			c-1.5,0-2.8-1.2-2.8-2.8c0-0.3,0.1-0.6,0.2-0.9c7.5-21.1,15.3-44.8,21.4-65.2c1.2-3.7,1.9-7.6,2-11.5c0-6.7-2.4-12.1-8.3-12.1
			c-11,0-25.1,20.1-35.1,34.6l-9.9,30.4c-7,21.7-10.6,28.8-19.3,28.8c-4.9,0-7-3.7-7-8.3c0.1-7.4,7.1-18.9,18.8-34.1
			c0.8-1,12.2-18.8,12.4-19.3l10.3-31.4c-11,7.9-24.5,18.6-40,18.6c-12.3,0-21.1-8.2-19.8-21c0.3-1.5,1.7-2.5,3.3-2.3
			c1.4,0.3,2.4,1.5,2.3,2.9c0,9.9,5.5,14.8,14.3,14.8c12.1,0,26-9.9,37.1-18c2.4-1.7,4.8-3.3,6.6-4.6c0.5-0.4,1-0.5,1.6-0.5
			c1.5,0,2.8,1.2,2.8,2.7c0,0.3,0,0.6-0.2,0.9l-7.4,22.6c10.7-13.6,18.6-22.6,29.6-22.6c8.6,0,13.6,7.7,13.6,16.9
			c7.1-8.7,15.6-15.6,24.8-15.6c11.2,0,17,5.9,17,17.4C657.8,532.7,653.4,543.5,647.9,558.9z M554.8,563.1c-0.2,0.5-0.6,1-0.9,1.5
			c-12,18-17.7,23.5-17.8,31.4c0,1.3,0.5,2.1,1.4,2.1c5.4,0,8.2-6.7,14-24.8L554.8,563.1z"/>
		<path class="st0" d="M713.1,574.4c0,0.4-0.1,0.8-0.3,1.2l-0.1,0.4c-5,11.1-12.1,27.3-24,27.3c-6.3,0-9.5-4.6-9.5-11.1
			c-5.3,7.4-10.8,11.1-16.5,11.1c-7.4,0-10.8-6.3-10.8-14.3c0-17.3,13.3-48.2,29.2-48.2c5.5,0,9.6,2.2,12,7c0.8-2.2,1.6-4.2,2.2-6
			c0.4-1.1,1.5-1.7,2.6-1.7c1.5,0,2.7,1.2,2.7,2.7c0,0.4-0.1,0.7-0.2,1l-6.6,17.7c-4.8,13.3-9.1,24.8-9.1,30.6c0,4,1.2,5.5,4,5.5
			c8.2,0,14.5-14.3,18.9-24l0.1-0.4c0.4-1,1.4-1.7,2.5-1.7c0.4,0,0.8,0.1,1.2,0.3C712.4,572.4,713.1,573.3,713.1,574.4z
			 M686.3,564.5l3.2-8.5c-0.3-6.1-3.7-9.6-8.5-9.6c-12.1,0.3-23.4,28.7-23.6,41.7c0,5.8,1.2,9.6,5.2,9.6
			C673.2,597.8,681,578,686.3,564.5z"/>
		<path class="st0" d="M761.7,574.4c0,0.4-0.1,0.8-0.3,1.2c-8.6,19.7-15.2,27.7-24.2,27.7h-0.1c-6.2,0-9.4-4.6-9.4-11.1
			c0-2.9,0.5-5.8,1.3-8.6c1.1-4.2,6.9-21.8,8.1-24.7c-10-3.3-11.5-3.8-14.4-5.3c-0.5,1.6-1.5,3.4-12,26.5c-0.4,0.9-1.3,1.6-2.4,1.6
			c-0.5,0-0.9-0.1-1.3-0.3c-0.9-0.5-1.5-1.4-1.6-2.5c0-0.4,0.1-0.8,0.3-1.2l10.6-23l1.6-4c-4-2.8-6.7-6.2-6.7-11.1
			c0-5.4,3.8-8.6,8-8.6c4.8,0,7.7,3.4,7.7,8.7c0,2.1-0.5,3.3-2.1,8.5c3.9,1.8,7.9,3.3,12,4.6c1.9,0.5,3.6,1.1,5,1.6
			c1.5,0.6,2.2,2.3,1.6,3.8c-1.7,4.4-8,23.2-8.8,26.5c-0.7,2.4-1.1,4.8-1.2,7.3c0,3.3,1.1,5.5,4,5.5c6.5,0,11.5-7.4,19-24.4
			c0.4-1,1.4-1.7,2.5-1.7c0.4,0,0.8,0.1,1.2,0.3C761,572.3,761.7,573.3,761.7,574.4z M719.2,536.8c-1.3-0.1-2.4,0.8-2.5,2.1
			c0,0.1,0,0.3,0,0.4c0.1,2.4,1.3,4.6,3.2,6.1c0.7-1.8,1.2-3.6,1.5-5.5C721.3,537.6,720.2,536.8,719.2,536.8z"/>
		<path class="st0" d="M748.5,603.2c-1.5-0.5-2.2-2.1-1.7-3.5c0,0,0,0,0,0c22-61.4,27.2-76,28.2-79.1c0.4-1,1.4-1.7,2.5-1.7
			c1.5-0.1,2.9,1.1,2.9,2.7c0,0.3,0,0.7-0.1,1c-11.5,32.4-19.4,54.9-28.3,78.8C751.5,602.8,750,603.5,748.5,603.2z M813.8,574.4
			c0,0.4-0.1,0.8-0.3,1.2c-6.3,14.1-13.3,27.7-24.3,27.7c-5.4,0-9.8-4.4-9.8-9.8c0-0.1,0-0.1,0-0.2c0.1-3,0.3-5.9,0.8-8.8
			c0.5-2.6,0.7-5.2,0.7-7.8c-0.1-3.4-1.3-5.9-5.8-5.9c-3.8,0-5.8,4-8.3,4c-2.9,0-3.6-2.9-1.6-4.9c1.7-1.7,13.9-12.4,31.4-28.5
			c0.5-0.5,1.2-0.7,1.9-0.7c1.6,0,2.8,1.2,2.9,2.8c0,0.8-0.4,1.5-0.9,2l-22.1,20.1c6.2,1,7.9,5.5,8.1,11.2c0,3-1.5,13.2-1.5,16.2
			c0,2.4,1.5,4.9,4.2,4.9c7.8,0,14.1-13.1,19.1-24.4c0.4-1,1.4-1.7,2.5-1.7c0.4,0,0.8,0.1,1.2,0.3
			C813.1,572.4,813.8,573.4,813.8,574.4z"/>
		<path class="st0" d="M867,574.4c0,0.4-0.1,0.8-0.3,1.2l-0.1,0.4c-5,11.1-12.1,27.3-24,27.3c-6.3,0-9.5-4.6-9.5-11.1
			c-5.3,7.4-10.8,11.1-16.5,11.1c-7.4,0-10.8-6.3-10.8-14.3c0-17.3,13.3-48.2,29.2-48.2c5.5,0,9.6,2.2,12,7c0.8-2.2,1.6-4.2,2.2-6
			c0.4-1.1,1.5-1.7,2.6-1.7c1.5,0,2.7,1.2,2.7,2.7c0,0.4-0.1,0.7-0.2,1l-6.6,17.7c-4.8,13.3-9.1,24.8-9.1,30.6c0,4,1.2,5.5,4,5.5
			c8.2,0,14.5-14.3,18.9-24l0.1-0.4c0.4-1,1.4-1.7,2.5-1.7c0.4,0,0.8,0.1,1.2,0.3C866.4,572.4,867,573.3,867,574.4z M840.2,564.5
			l3.2-8.5c-0.3-6.1-3.7-9.6-8.5-9.6c-12.1,0.3-23.4,28.7-23.6,41.7c0,5.8,1.2,9.6,5.1,9.6C827.2,597.8,835,578,840.2,564.5z"/>
		<path class="st0" d="M915.7,574.4c0,0.4-0.1,0.8-0.3,1.2c-8.6,19.7-15.2,27.7-24.2,27.7h-0.1c-6.2,0-9.4-4.6-9.4-11.1
			c0-2.9,0.5-5.8,1.3-8.6c1.1-4.2,6.9-21.8,8.1-24.7c-10-3.3-11.5-3.8-14.4-5.3c-0.5,1.6-1.5,3.4-12,26.5c-0.4,0.9-1.3,1.6-2.4,1.6
			c-0.5,0-0.9-0.1-1.3-0.3c-0.9-0.5-1.5-1.4-1.6-2.5c0-0.4,0.1-0.8,0.3-1.2l10.6-23l1.6-4c-4-2.8-6.7-6.2-6.7-11.1
			c0-5.4,3.8-8.6,8-8.6c4.8,0,7.7,3.4,7.7,8.7c0,2.1-0.5,3.3-2.1,8.5c3.9,1.8,7.9,3.3,12,4.6c1.9,0.5,3.6,1.1,5,1.6
			c1.5,0.6,2.2,2.3,1.6,3.8c-1.7,4.4-8,23.2-8.8,26.5c-0.7,2.4-1.1,4.8-1.2,7.3c0,3.3,1,5.5,4,5.5c6.5,0,11.5-7.4,19-24.4
			c0.4-1,1.4-1.7,2.5-1.7c0.4,0,0.8,0.1,1.2,0.3C915,572.3,915.6,573.3,915.7,574.4z M873.1,536.8c-1.3-0.1-2.4,0.8-2.5,2
			c0,0.2,0,0.3,0,0.5c0.1,2.4,1.3,4.6,3.2,6.1c0.7-1.8,1.2-3.6,1.4-5.5C875.2,537.6,874.2,536.8,873.1,536.8z"/>
		<path class="st0" d="M970,574.6c0,0.4-0.1,0.8-0.3,1.2c-8.1,19.2-19.1,31.6-38.4,37.2c-6.3,18.1-14.5,27.5-24,27.6
			c-7.9,0.1-13.1-5-13.1-12.8c0-8.3,6.5-14.4,22.3-17.3c3.3-0.5,6.9-1.2,10.4-2.1l3.3-9.5c-3,2.9-6.3,4.5-10,4.5
			c-11.2,0-14.4-7.5-14.4-14.1c0.3-6.1,3.3-13.3,8.5-26.8l7.4-20.1c0.4-1,1.4-1.7,2.5-1.7c1.5-0.1,2.7,1,2.8,2.5
			c0,0.4,0,0.8-0.2,1.2l-7.3,20.1c-5.8,16-8.1,20.1-8.1,24.8c0,3.8,1.2,8.6,8.7,8.6c7,0,15.5-14,20.7-29.2c1.7-5.1,0.9-2.8,9.8-26.1
			c0.4-1.1,1.4-1.8,2.5-1.8c1.7,0.1,3,1.6,2.9,3.2c0,0.2,0,0.4-0.1,0.6c-2.1,5.4-5.7,14.5-9.9,26l-10.6,30.1l-2,5.8
			c15.2-5.1,24.4-17.3,31-32.9c0.4-1,1.4-1.7,2.5-1.7c0.4,0,0.8,0.1,1.2,0.3C969.3,572.5,970,573.5,970,574.6z M924.8,614.6
			c-2.5,0.5-4.9,1.1-7.3,1.5c-12.1,2.1-17.3,5.5-17.8,11.6c0,4.6,3,7.5,7.5,7.4C914.5,634.9,920.5,627.9,924.8,614.6L924.8,614.6z"
			/>
		<path class="st0" d="M1026.8,574.4c0,0.4-0.1,0.8-0.3,1.2c-7.7,16.5-15,27.7-27.2,27.7c-6.2,0-9.8-4.2-9.8-11.6
			c-4.6,6.6-10,11.6-16.8,11.6c-7.4,0-10.8-6.3-10.8-14.3c0-17.3,13.2-48.2,29.2-48.2c5.9,0,9.8,2.6,11.9,6.7l2.5-6.9l7-20.2
			c0.4-1,1.4-1.7,2.5-1.7c1.5,0,2.8,1.2,2.8,2.8c0,0.3-0.1,0.6-0.1,0.9c-1.3,3.8-17,48.7-18.2,52.4c-2,6.1-4.4,13.9-4.4,17.3
			c0,3.2,1.2,5.5,4.2,5.5c9.5,0,15.8-11,22-24.5c0.5-1,1.5-1.6,2.6-1.6c0.4,0,0.7,0.1,1.1,0.3
			C1026.1,572.3,1026.8,573.3,1026.8,574.4z M996.5,564.5c1.2-2.8,2.1-5.4,3-7.5c0.1-0.3,0.1-0.6,0.1-0.9c-0.3-6.1-3.3-9.6-8.5-9.6
			c-12.1,0.4-23.4,28.7-23.6,41.7c0,5.8,1.2,9.6,5.2,9.6C983.4,597.8,991.2,578,996.5,564.5z"/>
		<path class="st0" d="M1038.6,603.4c-11,0-19.9-8.6-19.9-19.3c0.8-11.9,7.4-19.7,18-19.7c6.9,0,12.4,6.1,12.7,13.3
			c0.1,1.5-1.1,2.8-2.6,2.9s-2.8-1.1-2.9-2.6c0-0.1,0-0.2,0-0.3c-0.3-4.5-3.6-7.8-7-7.8c-7.3,0-12,6.1-12.6,14.1
			c0,8.1,6.7,13.7,14.4,13.7c10.7,0,18.4-7,18.6-18c-0.1-5.8-2.1-9.6-9.1-21.9c-0.9,0.9-1.8,1.9-2.6,3c-1,1.2-2.9,1.4-4.1,0.4
			c-0.6-0.6-1-1.4-0.9-2.2c0-0.6,0.3-1.2,0.7-1.7c1.6-1.8,2.9-3.3,4.5-4.9c-1.3-2.7-1.9-5.7-2-8.7c0-6.9,4.2-12.7,9.6-12.7
			c3.8,0,6.1,3,6.3,6.9c0,5.3-3.3,11.1-7.4,15.7c6.8,12.7,10.4,17.3,10.6,26.3C1062.5,594.2,1051.9,603.4,1038.6,603.4z M1053.9,538
			c0-1.8-1.5-1.5-2.8-0.1c-1.4,1.6-2.1,3.7-2,5.8c0,1.4,0.2,2.9,0.7,4.2C1051.9,545,1053.9,540.9,1053.9,538z"/>
		<defs>
			<filter id="Adobe_OpacityMaskFilter" filterUnits="userSpaceOnUse" x="512" y="500.7" width="550.7" height="139.9">
				<feColorMatrix  type="matrix" values="1 0 0 0 0  0 1 0 0 0  0 0 1 0 0  0 0 0 1 0"/>
			</filter>
		</defs>
		
			<mask maskUnits="userSpaceOnUse" x="512" y="500.7" width="550.7" height="139.9" id="f99ced66-6777-4af5-97ca-66b1c00f65da_00000026165704891955240640000017544660781727282349_">
			<g class="st1">
				<g transform="translate(429 300)">
					
						<image style="overflow:visible;enable-background:new    ;" width="555" height="145" xlink:href="58870179AE15B7C4.png"  transform="matrix(1 0 0 1 81 198)">
					</image>
				</g>
			</g>
		</mask>
		<g class="st2">
			<g class="st3">
				<path class="st4" d="M647.9,558.9c-5.7,15.5-17.7,48.3-17.7,56.5c0,6,4.1,9.2,9.2,9.2c1.4-0.1,2.6,1,2.6,2.4c0,0,0,0.1,0,0.1
					c0,1.5-1.2,2.6-2.6,2.6l0,0c-9.1,0-14.5-6.1-14.5-14.4c0-9.5,12.4-42.6,18.1-58.3c5.4-14.9,9.4-24.7,9.4-33.8
					c0-8.7-4.1-12.3-11.9-12.3c-9.6,0-19.8,11.3-26.1,21.2c-8.7,29-10.3,34.1-22.3,68.5c-0.4,1.1-1.4,1.9-2.6,1.9
					c-1.5,0-2.8-1.2-2.8-2.8c0-0.3,0.1-0.6,0.2-0.9c7.5-21.1,15.3-44.8,21.4-65.2c1.2-3.7,1.9-7.6,2-11.5c0-6.7-2.4-12.1-8.3-12.1
					c-11,0-25.1,20.1-35.1,34.6l-9.9,30.4c-7,21.7-10.6,28.8-19.3,28.8c-4.9,0-7-3.7-7-8.3c0.1-7.4,7.1-18.9,18.8-34.1
					c0.8-1,12.2-18.8,12.4-19.3l10.3-31.4c-11,7.9-24.5,18.6-40,18.6c-12.3,0-21.1-8.2-19.8-21c0.3-1.5,1.7-2.5,3.3-2.3
					c1.4,0.3,2.4,1.5,2.3,2.9c0,9.9,5.5,14.8,14.3,14.8c12.1,0,26-9.9,37.1-18c2.4-1.7,4.8-3.3,6.6-4.6c0.5-0.4,1-0.5,1.6-0.5
					c1.5,0,2.8,1.2,2.8,2.7c0,0.3,0,0.6-0.2,0.9l-7.4,22.6c10.7-13.6,18.6-22.6,29.6-22.6c8.6,0,13.6,7.7,13.6,16.9
					c7.1-8.7,15.6-15.6,24.8-15.6c11.2,0,17,5.9,17,17.4C657.8,532.7,653.4,543.5,647.9,558.9z M554.8,563.1c-0.2,0.5-0.6,1-0.9,1.5
					c-12,18-17.7,23.5-17.8,31.4c0,1.3,0.5,2.1,1.4,2.1c5.4,0,8.2-6.7,14-24.8L554.8,563.1z"/>
				<path class="st4" d="M713.1,574.4c0,0.4-0.1,0.8-0.3,1.2l-0.1,0.4c-5,11.1-12.1,27.3-24,27.3c-6.3,0-9.5-4.6-9.5-11.1
					c-5.3,7.4-10.8,11.1-16.5,11.1c-7.4,0-10.8-6.3-10.8-14.3c0-17.3,13.3-48.2,29.2-48.2c5.5,0,9.6,2.2,12,7c0.8-2.2,1.6-4.2,2.2-6
					c0.4-1.1,1.5-1.7,2.6-1.7c1.5,0,2.7,1.2,2.7,2.7c0,0.4-0.1,0.7-0.2,1l-6.6,17.7c-4.8,13.3-9.1,24.8-9.1,30.6c0,4,1.2,5.5,4,5.5
					c8.2,0,14.5-14.3,18.9-24l0.1-0.4c0.4-1,1.4-1.7,2.5-1.7c0.4,0,0.8,0.1,1.2,0.3C712.4,572.4,713.1,573.3,713.1,574.4z
					 M686.3,564.5l3.2-8.5c-0.3-6.1-3.7-9.6-8.5-9.6c-12.1,0.3-23.4,28.7-23.6,41.7c0,5.8,1.2,9.6,5.2,9.6
					C673.2,597.8,681,578,686.3,564.5z"/>
				<path class="st4" d="M761.7,574.4c0,0.4-0.1,0.8-0.3,1.2c-8.6,19.7-15.2,27.7-24.2,27.7h-0.1c-6.2,0-9.4-4.6-9.4-11.1
					c0-2.9,0.5-5.8,1.3-8.6c1.1-4.2,6.9-21.8,8.1-24.7c-10-3.3-11.5-3.8-14.4-5.3c-0.5,1.6-1.5,3.4-12,26.5
					c-0.4,0.9-1.3,1.6-2.4,1.6c-0.5,0-0.9-0.1-1.3-0.3c-0.9-0.5-1.5-1.4-1.6-2.5c0-0.4,0.1-0.8,0.3-1.2l10.6-23l1.6-4
					c-4-2.8-6.7-6.2-6.7-11.1c0-5.4,3.8-8.6,8-8.6c4.8,0,7.7,3.4,7.7,8.7c0,2.1-0.5,3.3-2.1,8.5c3.9,1.8,7.9,3.3,12,4.6
					c1.9,0.5,3.6,1.1,5,1.6c1.5,0.6,2.2,2.3,1.6,3.8c-1.7,4.4-8,23.2-8.8,26.5c-0.7,2.4-1.1,4.8-1.2,7.3c0,3.3,1.1,5.5,4,5.5
					c6.5,0,11.5-7.4,19-24.4c0.4-1,1.4-1.7,2.5-1.7c0.4,0,0.8,0.1,1.2,0.3C761,572.3,761.7,573.3,761.7,574.4z M719.2,536.8
					c-1.3-0.1-2.4,0.8-2.5,2.1c0,0.1,0,0.3,0,0.4c0.1,2.4,1.3,4.6,3.2,6.1c0.7-1.8,1.2-3.6,1.5-5.5
					C721.3,537.6,720.2,536.8,719.2,536.8z"/>
				<path class="st4" d="M748.5,603.2c-1.5-0.5-2.2-2.1-1.7-3.5c0,0,0,0,0,0c22-61.4,27.2-76,28.2-79.1c0.4-1,1.4-1.7,2.5-1.7
					c1.5-0.1,2.9,1.1,2.9,2.7c0,0.3,0,0.7-0.1,1c-11.5,32.4-19.4,54.9-28.3,78.8C751.5,602.8,750,603.5,748.5,603.2z M813.8,574.4
					c0,0.4-0.1,0.8-0.3,1.2c-6.3,14.1-13.3,27.7-24.3,27.7c-5.4,0-9.8-4.4-9.8-9.8c0-0.1,0-0.1,0-0.2c0.1-3,0.3-5.9,0.8-8.8
					c0.5-2.6,0.7-5.2,0.7-7.8c-0.1-3.4-1.3-5.9-5.8-5.9c-3.8,0-5.8,4-8.3,4c-2.9,0-3.6-2.9-1.6-4.9c1.7-1.7,13.9-12.4,31.4-28.5
					c0.5-0.5,1.2-0.7,1.9-0.7c1.6,0,2.8,1.2,2.9,2.8c0,0.8-0.4,1.5-0.9,2l-22.1,20.1c6.2,1,7.9,5.5,8.1,11.2c0,3-1.5,13.2-1.5,16.2
					c0,2.4,1.5,4.9,4.2,4.9c7.8,0,14.1-13.1,19.1-24.4c0.4-1,1.4-1.7,2.5-1.7c0.4,0,0.8,0.1,1.2,0.3
					C813.1,572.4,813.8,573.4,813.8,574.4z"/>
				<path class="st4" d="M867,574.4c0,0.4-0.1,0.8-0.3,1.2l-0.1,0.4c-5,11.1-12.1,27.3-24,27.3c-6.3,0-9.5-4.6-9.5-11.1
					c-5.3,7.4-10.8,11.1-16.5,11.1c-7.4,0-10.8-6.3-10.8-14.3c0-17.3,13.3-48.2,29.2-48.2c5.5,0,9.6,2.2,12,7c0.8-2.2,1.6-4.2,2.2-6
					c0.4-1.1,1.5-1.7,2.6-1.7c1.5,0,2.7,1.2,2.7,2.7c0,0.4-0.1,0.7-0.2,1l-6.6,17.7c-4.8,13.3-9.1,24.8-9.1,30.6c0,4,1.2,5.5,4,5.5
					c8.2,0,14.5-14.3,18.9-24l0.1-0.4c0.4-1,1.4-1.7,2.5-1.7c0.4,0,0.8,0.1,1.2,0.3C866.4,572.4,867,573.3,867,574.4z M840.2,564.5
					l3.2-8.5c-0.3-6.1-3.7-9.6-8.5-9.6c-12.1,0.3-23.4,28.7-23.6,41.7c0,5.8,1.2,9.6,5.1,9.6C827.2,597.8,835,578,840.2,564.5z"/>
				<path class="st4" d="M915.7,574.4c0,0.4-0.1,0.8-0.3,1.2c-8.6,19.7-15.2,27.7-24.2,27.7h-0.1c-6.2,0-9.4-4.6-9.4-11.1
					c0-2.9,0.5-5.8,1.3-8.6c1.1-4.2,6.9-21.8,8.1-24.7c-10-3.3-11.5-3.8-14.4-5.3c-0.5,1.6-1.5,3.4-12,26.5
					c-0.4,0.9-1.3,1.6-2.4,1.6c-0.5,0-0.9-0.1-1.3-0.3c-0.9-0.5-1.5-1.4-1.6-2.5c0-0.4,0.1-0.8,0.3-1.2l10.6-23l1.6-4
					c-4-2.8-6.7-6.2-6.7-11.1c0-5.4,3.8-8.6,8-8.6c4.8,0,7.7,3.4,7.7,8.7c0,2.1-0.5,3.3-2.1,8.5c3.9,1.8,7.9,3.3,12,4.6
					c1.9,0.5,3.6,1.1,5,1.6c1.5,0.6,2.2,2.3,1.6,3.8c-1.7,4.4-8,23.2-8.8,26.5c-0.7,2.4-1.1,4.8-1.2,7.3c0,3.3,1,5.5,4,5.5
					c6.5,0,11.5-7.4,19-24.4c0.4-1,1.4-1.7,2.5-1.7c0.4,0,0.8,0.1,1.2,0.3C915,572.3,915.6,573.3,915.7,574.4z M873.1,536.8
					c-1.3-0.1-2.4,0.8-2.5,2c0,0.2,0,0.3,0,0.5c0.1,2.4,1.3,4.6,3.2,6.1c0.7-1.8,1.2-3.6,1.4-5.5
					C875.2,537.6,874.2,536.8,873.1,536.8z"/>
				<path class="st4" d="M970,574.6c0,0.4-0.1,0.8-0.3,1.2c-8.1,19.2-19.1,31.6-38.4,37.2c-6.3,18.1-14.5,27.5-24,27.6
					c-7.9,0.1-13.1-5-13.1-12.8c0-8.3,6.5-14.4,22.3-17.3c3.3-0.5,6.9-1.2,10.4-2.1l3.3-9.5c-3,2.9-6.3,4.5-10,4.5
					c-11.2,0-14.4-7.5-14.4-14.1c0.3-6.1,3.3-13.3,8.5-26.8l7.4-20.1c0.4-1,1.4-1.7,2.5-1.7c1.5-0.1,2.7,1,2.8,2.5
					c0,0.4,0,0.8-0.2,1.2l-7.3,20.1c-5.8,16-8.1,20.1-8.1,24.8c0,3.8,1.2,8.6,8.7,8.6c7,0,15.5-14,20.7-29.2
					c1.7-5.1,0.9-2.8,9.8-26.1c0.4-1.1,1.4-1.8,2.5-1.8c1.7,0.1,3,1.6,2.9,3.2c0,0.2,0,0.4-0.1,0.6c-2.1,5.4-5.7,14.5-9.9,26
					l-10.6,30.1l-2,5.8c15.2-5.1,24.4-17.3,31-32.9c0.4-1,1.4-1.7,2.5-1.7c0.4,0,0.8,0.1,1.2,0.3C969.3,572.5,970,573.5,970,574.6z
					 M924.8,614.6c-2.5,0.5-4.9,1.1-7.3,1.5c-12.1,2.1-17.3,5.5-17.8,11.6c0,4.6,3,7.5,7.5,7.4C914.5,634.9,920.5,627.9,924.8,614.6
					L924.8,614.6z"/>
				<path class="st4" d="M1026.8,574.4c0,0.4-0.1,0.8-0.3,1.2c-7.7,16.5-15,27.7-27.2,27.7c-6.2,0-9.8-4.2-9.8-11.6
					c-4.6,6.6-10,11.6-16.8,11.6c-7.4,0-10.8-6.3-10.8-14.3c0-17.3,13.2-48.2,29.2-48.2c5.9,0,9.8,2.6,11.9,6.7l2.5-6.9l7-20.2
					c0.4-1,1.4-1.7,2.5-1.7c1.5,0,2.8,1.2,2.8,2.8c0,0.3-0.1,0.6-0.1,0.9c-1.3,3.8-17,48.7-18.2,52.4c-2,6.1-4.4,13.9-4.4,17.3
					c0,3.2,1.2,5.5,4.2,5.5c9.5,0,15.8-11,22-24.5c0.5-1,1.5-1.6,2.6-1.6c0.4,0,0.7,0.1,1.1,0.3
					C1026.1,572.3,1026.8,573.3,1026.8,574.4z M996.5,564.5c1.2-2.8,2.1-5.4,3-7.5c0.1-0.3,0.1-0.6,0.1-0.9
					c-0.3-6.1-3.3-9.6-8.5-9.6c-12.1,0.4-23.4,28.7-23.6,41.7c0,5.8,1.2,9.6,5.2,9.6C983.4,597.8,991.2,578,996.5,564.5z"/>
				<path class="st4" d="M1038.6,603.4c-11,0-19.9-8.6-19.9-19.3c0.8-11.9,7.4-19.7,18-19.7c6.9,0,12.4,6.1,12.7,13.3
					c0.1,1.5-1.1,2.8-2.6,2.9s-2.8-1.1-2.9-2.6c0-0.1,0-0.2,0-0.3c-0.3-4.5-3.6-7.8-7-7.8c-7.3,0-12,6.1-12.6,14.1
					c0,8.1,6.7,13.7,14.4,13.7c10.7,0,18.4-7,18.6-18c-0.1-5.8-2.1-9.6-9.1-21.9c-0.9,0.9-1.8,1.9-2.6,3c-1,1.2-2.9,1.4-4.1,0.4
					c-0.6-0.6-1-1.4-0.9-2.2c0-0.6,0.3-1.2,0.7-1.7c1.6-1.8,2.9-3.3,4.5-4.9c-1.3-2.7-1.9-5.7-2-8.7c0-6.9,4.2-12.7,9.6-12.7
					c3.8,0,6.1,3,6.3,6.9c0,5.3-3.3,11.1-7.4,15.7c6.8,12.7,10.4,17.3,10.6,26.3C1062.5,594.2,1051.9,603.4,1038.6,603.4z
					 M1053.9,538c0-1.8-1.5-1.5-2.8-0.1c-1.4,1.6-2.1,3.7-2,5.8c0,1.4,0.2,2.9,0.7,4.2C1051.9,545,1053.9,540.9,1053.9,538z"/>
			</g>
		</g>
		<path class="st0" d="M570.5,619.6c4.6,0,7.8,2.9,7.8,7.1c0,6.2-9.5,11.2-18.9,13.7c-5.7,14.4-18.9,56.1-18.9,68.9
			c0,7,2,12.3,8.1,12.3c13.9,0,24.6-25.5,35-50.7c11-26.4,21.8-52.5,38.4-52.5c1.6,0,2.9,1.2,2.9,2.7c0,0,0,0,0,0
			c0,1.5-1.1,2.7-2.6,2.8c0,0-0.1,0-0.1,0c-12.9-0.1-23.1,24.3-33.4,49.1c-11.2,26.9-22.6,54.3-40.1,54.3
			c-10.3,0-13.6-7.8-13.6-17.7c0-14.4,11.9-51.5,18-68c-2.6,0.5-5.3,0.9-8.1,1.3c-16.6,2.6-39.2,5.8-39.2,21.7
			c0,7,4.6,11.9,10.4,11.9c1.6,0,2.8,1.3,2.8,2.9c0,0,0,0,0,0c-0.1,1.5-1.3,2.7-2.8,2.6c0,0-0.1,0-0.1,0c-9.2,0-15.9-7.8-15.9-17.7
			c0-19.9,24.8-23.9,43.8-26.8c4-0.7,7.9-1.3,11.4-2C558.2,627.9,563.8,619.6,570.5,619.6z M572.3,626.7c0-1-0.8-1.8-1.7-1.8
			c0,0-0.1,0-0.1,0c-2.9,0-6.3,4.5-8.5,9C567.6,632.6,572.3,628.8,572.3,626.7L572.3,626.7z"/>
		<path class="st0" d="M655.3,693.4c0,0.4-0.1,0.8-0.3,1.2l-0.1,0.4c-5,11.1-12.2,27.3-24,27.3c-6.3,0-9.5-4.6-9.5-11.1
			c-5.3,7.4-10.8,11.1-16.5,11.1c-7.4,0-10.9-6.3-10.9-14.3c0-17.3,13.3-48.2,29.2-48.2c5.5,0,9.6,2.2,12,7c0.8-2.2,1.6-4.2,2.2-6
			c0.4-1.1,1.5-1.7,2.6-1.7c1.5,0,2.7,1.2,2.7,2.6c0,0.4-0.1,0.7-0.2,1.1l-6.6,17.7c-4.8,13.3-9.1,24.8-9.1,30.6c0,4,1.2,5.5,4,5.5
			c8.2,0,14.5-14.3,18.9-24l0.1-0.4c0.4-1,1.4-1.7,2.5-1.7c0.4,0,0.8,0.1,1.2,0.3C654.6,691.3,655.2,692.3,655.3,693.4z
			 M628.5,683.5l3.2-8.5c-0.3-6.1-3.7-9.6-8.5-9.6c-12.1,0.3-23.4,28.7-23.6,41.7c0,5.8,1.2,9.6,5.1,9.6
			C615.4,716.8,623.2,696.9,628.5,683.5z M621,639.1c1-6.3,6.5-11,12.9-11.1c6-0.1,11,4.6,11.1,10.7c0,0.7,0,1.4-0.1,2
			c-1.1,6.4-6.5,11.1-12.9,11.2c-6,0.1-11-4.6-11.1-10.6C620.8,640.5,620.9,639.8,621,639.1z M639.3,639.9c0.6-2.9-1.3-5.7-4.1-6.2
			c-0.4-0.1-0.9-0.1-1.3-0.1c-3.7,0.1-6.7,2.8-7.4,6.3c-0.5,3.7,1.7,6.5,5.4,6.5C635.6,646.2,638.7,643.5,639.3,639.9L639.3,639.9z"
			/>
		<path class="st0" d="M703.9,693.4c0,0.4-0.1,0.8-0.3,1.2c-8.6,19.7-15.2,27.7-24.2,27.7h-0.1c-6.2,0-9.4-4.6-9.4-11.1
			c0-2.9,0.5-5.8,1.3-8.6c1-4.2,6.9-21.8,8-24.7c-10-3.3-11.5-3.8-14.4-5.3c-0.5,1.6-1.5,3.4-12,26.5c-0.4,0.9-1.3,1.6-2.4,1.6
			c-0.5,0-0.9-0.1-1.3-0.3c-0.9-0.5-1.5-1.4-1.6-2.5c0-0.4,0.1-0.8,0.3-1.2l10.6-23l1.6-4c-4-2.8-6.7-6.2-6.7-11.1
			c0-5.4,3.8-8.6,8-8.6c4.8,0,7.7,3.4,7.7,8.7c0,2.1-0.5,3.3-2.1,8.5c3.9,1.8,7.9,3.3,12,4.6c1.9,0.5,3.6,1,5,1.6
			c1.5,0.6,2.2,2.3,1.6,3.8c-1.7,4.4-8.1,23.2-8.9,26.5c-0.7,2.4-1.1,4.8-1.2,7.3c0,3.3,1.1,5.5,4,5.5c6.5,0,11.5-7.4,19-24.4
			c0.5-1,1.5-1.7,2.6-1.7c0.4,0,0.8,0.1,1.2,0.3C703.2,691.3,703.8,692.3,703.9,693.4z M661.3,655.8c-1.3-0.1-2.4,0.8-2.5,2
			c0,0.2,0,0.3,0,0.5c0.1,2.4,1.3,4.6,3.2,6.1c0.7-1.8,1.2-3.6,1.5-5.5C663.5,656.5,662.4,655.8,661.3,655.8L661.3,655.8z"/>
		<path class="st0" d="M784.9,695c-4.9,11.1-12.1,27.3-23.9,27.3c-6.5,0-9.6-4.6-9.6-11.1c0-12,10.3-28.4,10.3-39.2
			c0-3.8-1.6-6.9-6.9-6.9c-7.7,0-18,17.3-21.8,28c-0.3,0.8-9.1,26.7-9,26.4c-0.4,1.1-1.4,1.9-2.6,1.9c-1.5,0-2.8-1.2-2.8-2.8
			c0-0.3,0.1-0.6,0.2-0.9c0.1-0.4,8.9-26.3,9-26.5c2.8-8,4.8-14,4.8-18.6c0-4.9-1.9-7.4-6.6-7.4c-3.7,0-7.7,4.2-11.5,9.6
			c-2.4,3.6-10.3,18.1-11.1,20.2l-9,25.5c-0.5,1.5-2.1,2.3-3.6,1.8c-1.5-0.5-2.2-2.1-1.7-3.6c6.7-19,13.6-38,20.3-57
			c0.4-1.1,1.4-1.9,2.6-1.8c1.5,0,2.8,1.2,2.8,2.8c0,0.3-0.1,0.6-0.2,0.9c-0.5,1.2-1,2.3-1.3,3.6c3.8-4.5,8-7.5,12.5-7.5
			c7.9,0,12.1,5.2,12.1,12.2c3.8-6.1,10.6-12.2,16.8-12.2c9.5,0,12.4,5.4,12.4,12.4c0,12.7-10.2,27.8-10.2,39.2c0,3.8,1.2,5.5,4,5.5
			c6.5,0,11.8-7.8,18.9-24.4c0.5-1,1.5-1.7,2.6-1.7c1.5,0.1,2.7,1.3,2.8,2.8C785.3,694,785.1,694.5,784.9,695z"/>
		<path class="st0" d="M838.5,693.4c0,0.4-0.1,0.8-0.3,1.2l-0.1,0.4c-5,11.1-12.1,27.3-24,27.3c-6.3,0-9.5-4.6-9.5-11.1
			c-5.3,7.4-10.8,11.1-16.5,11.1c-7.4,0-10.8-6.3-10.8-14.3c0-17.3,13.3-48.2,29.2-48.2c5.5,0,9.6,2.2,12,7c0.8-2.2,1.6-4.2,2.2-6
			c0.4-1.1,1.5-1.7,2.6-1.7c1.5,0,2.7,1.2,2.7,2.6c0,0.4-0.1,0.7-0.2,1.1l-6.6,17.7c-4.8,13.3-9.1,24.8-9.1,30.6c0,4,1.2,5.5,4,5.5
			c8.2,0,14.5-14.3,18.9-24l0.1-0.4c0.4-1,1.4-1.7,2.5-1.7c0.4,0,0.8,0.1,1.2,0.3C837.9,691.3,838.5,692.3,838.5,693.4z
			 M811.8,683.5l3.2-8.5c-0.3-6.1-3.7-9.6-8.5-9.6c-12.1,0.3-23.4,28.7-23.6,41.7c0,5.8,1.2,9.6,5.2,9.6
			C798.7,716.8,806.5,696.9,811.8,683.5z"/>
		<path class="st0" d="M887.1,693.4c0,0.4-0.1,0.8-0.3,1.2c-8.6,19.7-15.2,27.7-24.2,27.7h-0.1c-6.2,0-9.4-4.6-9.4-11.1
			c0-2.9,0.5-5.8,1.3-8.6c1-4.2,6.9-21.8,8-24.7c-10-3.3-11.5-3.8-14.4-5.3c-0.5,1.6-1.4,3.4-12,26.5c-0.4,0.9-1.3,1.6-2.4,1.6
			c-0.5,0-0.9-0.1-1.3-0.3c-0.9-0.5-1.5-1.4-1.6-2.5c0-0.4,0.1-0.8,0.3-1.2l10.6-23l1.6-4c-4-2.8-6.7-6.2-6.7-11.1
			c0-5.4,3.8-8.6,8-8.6c4.8,0,7.7,3.4,7.7,8.7c0,2.1-0.5,3.3-2.1,8.5c3.9,1.8,7.9,3.3,12,4.6c1.8,0.5,3.6,1,5,1.6
			c1.5,0.6,2.2,2.3,1.6,3.8c-1.7,4.4-8.1,23.2-8.8,26.5c-0.7,2.4-1.1,4.8-1.2,7.3c0,3.3,1.1,5.5,4,5.5c6.5,0,11.5-7.4,19-24.4
			c0.4-1,1.4-1.7,2.5-1.7c0.4,0,0.8,0.1,1.2,0.3C886.5,691.3,887.1,692.3,887.1,693.4z M844.6,655.8c-1.3-0.1-2.4,0.8-2.5,2
			c0,0.2,0,0.3,0,0.5c0.1,2.4,1.3,4.6,3.2,6.1c0.7-1.8,1.2-3.6,1.5-5.5C846.7,656.5,845.7,655.8,844.6,655.8L844.6,655.8z"/>
		<path class="st0" d="M873.9,722.2c-1.5-0.5-2.2-2.1-1.7-3.6c0,0,0,0,0,0c22-61.4,27.2-76,28.3-79.1c0.4-1,1.4-1.7,2.5-1.7
			c1.5-0.1,2.9,1.1,2.9,2.7c0,0.3,0,0.7-0.1,1c-11.5,32.3-19.4,54.9-28.3,78.8C876.9,721.7,875.4,722.5,873.9,722.2z M939.3,693.4
			c0,0.4-0.1,0.8-0.3,1.2c-6.3,14.1-13.3,27.7-24.3,27.7c-5.4,0-9.8-4.4-9.8-9.8c0-0.1,0-0.1,0-0.2c0.1-3,0.3-5.9,0.8-8.9
			c0.5-2.6,0.7-5.2,0.7-7.8c-0.1-3.4-1.3-5.9-5.8-5.9c-3.8,0-5.8,4-8.3,4c-2.9,0-3.6-2.9-1.6-4.9c1.7-1.7,13.9-12.4,31.4-28.5
			c0.5-0.5,1.2-0.7,1.9-0.7c1.6,0,2.8,1.2,2.9,2.8c0,0.8-0.4,1.5-0.9,2l-22,20.1c6.2,1,7.9,5.5,8,11.2c0,3-1.5,13.2-1.5,16.2
			c0,2.4,1.5,4.9,4.2,4.9c7.8,0,14.1-13.1,19.1-24.4c0.4-1,1.4-1.7,2.5-1.7c0.4,0,0.8,0.1,1.2,0.3
			C938.6,691.4,939.3,692.3,939.3,693.4z"/>
		<path class="st0" d="M992,693.4c0,0.4-0.1,0.8-0.3,1.2c-9,19.9-15.2,27.7-24.2,27.7c-6.3,0-9.5-4.6-9.5-11.1
			c0-12.4,10.3-27.7,10.3-39.2c0-3.8-1.7-6.9-6.9-6.9c-8,0-18.1,17.8-22.3,29l-9.2,26.1c-0.5,1.5-2.1,2.3-3.6,1.9
			c-1.4-0.5-2.2-2-1.8-3.5c0,0,0-0.1,0-0.1c6.9-19,15.2-42.9,20.3-57c0.4-1.1,1.4-1.9,2.6-1.8c1.5,0,2.8,1.2,2.8,2.7
			c0,0.3,0,0.6-0.2,0.9l-1.1,2.6c3.8-4,7.9-6.5,12.3-6.5c9.5,0,12.4,5.4,12.4,12.4c0,11.8-10.3,29-10.3,39.2c0,3.8,1.2,5.5,4,5.5
			c6.2,0,11-7,19-24.4c0.4-1,1.4-1.7,2.5-1.7c0.4,0,0.8,0.1,1.2,0.3C991.3,691.3,992,692.3,992,693.4z"/>
		<path class="st0" d="M1045.2,693.4c0,0.4-0.1,0.8-0.3,1.2l-0.1,0.4c-5,11.1-12.1,27.3-24,27.3c-6.3,0-9.5-4.6-9.5-11.1
			c-5.3,7.4-10.8,11.1-16.5,11.1c-7.4,0-10.8-6.3-10.8-14.3c0-17.3,13.3-48.2,29.2-48.2c5.5,0,9.6,2.2,12,7c0.8-2.2,1.6-4.2,2.2-6
			c0.4-1.1,1.5-1.7,2.6-1.7c1.5,0,2.7,1.2,2.7,2.7c0,0.4-0.1,0.7-0.2,1l-6.6,17.7c-4.7,13.3-9.1,24.8-9.1,30.6c0,4,1.2,5.5,4,5.5
			c8.2,0,14.5-14.3,18.9-24l0.1-0.4c0.4-1,1.4-1.7,2.5-1.7c0.4,0,0.8,0.1,1.2,0.3C1044.5,691.4,1045.1,692.3,1045.2,693.4z
			 M1018.4,683.5l3.2-8.5c-0.3-6.1-3.7-9.6-8.5-9.6c-12.2,0.3-23.4,28.7-23.6,41.7c0,5.8,1.2,9.6,5.2,9.6
			C1005.3,716.8,1013.1,696.9,1018.4,683.5z"/>
		<path class="st0" d="M1102,693.4c0,0.4-0.1,0.8-0.3,1.2c-7.7,16.5-15.1,27.7-27.2,27.7c-6.2,0-9.8-4.2-9.8-11.6
			c-4.6,6.6-10,11.6-16.8,11.6c-7.4,0-10.8-6.3-10.8-14.3c0-17.3,13.2-48.2,29.2-48.2c5.9,0,9.8,2.6,11.9,6.7l2.5-6.9l7-20.2
			c0.4-1,1.4-1.7,2.5-1.7c1.5,0,2.8,1.2,2.8,2.8c0,0.3-0.1,0.6-0.2,0.9c-1.3,3.8-17,48.7-18.2,52.4c-2,6.1-4.4,13.9-4.4,17.3
			c0,3.2,1.2,5.5,4.2,5.5c9.5,0,15.8-11,22-24.6c0.5-1,1.6-1.6,2.6-1.6c0.3,0,0.7,0.1,1,0.3C1101.2,691.3,1101.9,692.3,1102,693.4z
			 M1071.6,683.5c1.2-2.8,2.1-5.4,3-7.5c0.1-0.3,0.1-0.6,0.1-0.9c-0.3-6.1-3.3-9.6-8.4-9.6c-12.2,0.4-23.4,28.7-23.6,41.7
			c0,5.8,1.2,9.6,5.2,9.6C1058.5,716.8,1066.3,696.9,1071.6,683.5L1071.6,683.5z"/>
		
			<image style="overflow:visible;enable-background:new    ;" width="1602" height="1110" xlink:href="CB83369629238FF9.png"  transform="matrix(1 0 0 1 0 118)">
		</image>
		
			<image style="overflow:visible;enable-background:new    ;" width="1602" height="1110" xlink:href="CB83369629238FFF.png"  transform="matrix(1 0 0 1 0 118)">
		</image>
		
			<image style="overflow:visible;enable-background:new    ;" width="1602" height="1110" xlink:href="CB83369629238FF8.png"  transform="matrix(1 0 0 1 0 118)">
		</image>
		
			<image style="overflow:visible;enable-background:new    ;" width="1602" height="1110" xlink:href="CB83369629238FFB.png"  transform="matrix(1 0 0 1 0 118)">
		</image>
		
			<image style="overflow:visible;enable-background:new    ;" width="1602" height="1110" xlink:href="CB83369629238FE7.png"  transform="matrix(1 0 0 1 0 118)">
		</image>
		
			<image style="overflow:visible;enable-background:new    ;" width="1602" height="1110" xlink:href="CB83369629238FF7.png"  transform="matrix(1 0 0 1 0 118)">
		</image>
		
			<image style="overflow:visible;enable-background:new    ;" width="1602" height="1110" xlink:href="CB83369629238FE9.png"  transform="matrix(1 0 0 1 0 118)">
		</image>
		
			<image style="overflow:visible;enable-background:new    ;" width="1602" height="1110" xlink:href="CB83369629238FEB.png"  transform="matrix(1 0 0 1 0 118)">
		</image>
		<path class="st5" d="M570.5,619.6c4.6,0,7.8,2.9,7.8,7.1c0,6.2-9.5,11.2-18.9,13.7c-5.7,14.4-18.9,56.1-18.9,68.9
			c0,7,2,12.3,8.1,12.3c13.9,0,24.6-25.5,35-50.7c11-26.4,21.8-52.5,38.4-52.5c1.6,0,2.9,1.2,2.9,2.7c0,0,0,0,0,0
			c0,1.5-1.1,2.7-2.6,2.8c0,0-0.1,0-0.1,0c-12.9-0.1-23.1,24.3-33.4,49.1c-11.2,26.9-22.6,54.3-40.1,54.3
			c-10.3,0-13.6-7.8-13.6-17.7c0-14.4,11.9-51.5,18-68c-2.6,0.5-5.3,0.9-8.1,1.3c-16.6,2.6-39.2,5.8-39.2,21.7
			c0,7,4.6,11.9,10.4,11.9c1.6,0,2.8,1.3,2.8,2.9c0,0,0,0,0,0c-0.1,1.5-1.3,2.7-2.8,2.6c0,0-0.1,0-0.1,0c-9.2,0-15.9-7.8-15.9-17.7
			c0-19.9,24.8-23.9,43.8-26.8c4-0.7,7.9-1.3,11.4-2C558.2,627.9,563.8,619.6,570.5,619.6z M572.3,626.7c0-1-0.8-1.8-1.7-1.8
			c0,0-0.1,0-0.1,0c-2.9,0-6.3,4.5-8.5,9C567.6,632.6,572.3,628.8,572.3,626.7L572.3,626.7z"/>
		<path class="st5" d="M655.3,693.4c0,0.4-0.1,0.8-0.3,1.2l-0.1,0.4c-5,11.1-12.2,27.3-24,27.3c-6.3,0-9.5-4.6-9.5-11.1
			c-5.3,7.4-10.8,11.1-16.5,11.1c-7.4,0-10.9-6.3-10.9-14.3c0-17.3,13.3-48.2,29.2-48.2c5.5,0,9.6,2.2,12,7c0.8-2.2,1.6-4.2,2.2-6
			c0.4-1.1,1.5-1.7,2.6-1.7c1.5,0,2.7,1.2,2.7,2.6c0,0.4-0.1,0.7-0.2,1.1l-6.6,17.7c-4.8,13.3-9.1,24.8-9.1,30.6c0,4,1.2,5.5,4,5.5
			c8.2,0,14.5-14.3,18.9-24l0.1-0.4c0.4-1,1.4-1.7,2.5-1.7c0.4,0,0.8,0.1,1.2,0.3C654.6,691.3,655.2,692.3,655.3,693.4z
			 M628.5,683.5l3.2-8.5c-0.3-6.1-3.7-9.6-8.5-9.6c-12.1,0.3-23.4,28.7-23.6,41.7c0,5.8,1.2,9.6,5.1,9.6
			C615.4,716.8,623.2,696.9,628.5,683.5z M621,639.1c1-6.3,6.5-11,12.9-11.1c6-0.1,11,4.6,11.1,10.7c0,0.7,0,1.4-0.1,2
			c-1.1,6.4-6.5,11.1-12.9,11.2c-6,0.1-11-4.6-11.1-10.6C620.8,640.5,620.9,639.8,621,639.1z M639.3,639.9c0.6-2.9-1.3-5.7-4.1-6.2
			c-0.4-0.1-0.9-0.1-1.3-0.1c-3.7,0.1-6.7,2.8-7.4,6.3c-0.5,3.7,1.7,6.5,5.4,6.5C635.6,646.2,638.7,643.5,639.3,639.9L639.3,639.9z"
			/>
		<path class="st5" d="M703.9,693.4c0,0.4-0.1,0.8-0.3,1.2c-8.6,19.7-15.2,27.7-24.2,27.7h-0.1c-6.2,0-9.4-4.6-9.4-11.1
			c0-2.9,0.5-5.8,1.3-8.6c1-4.2,6.9-21.8,8-24.7c-10-3.3-11.5-3.8-14.4-5.3c-0.5,1.6-1.5,3.4-12,26.5c-0.4,0.9-1.3,1.6-2.4,1.6
			c-0.5,0-0.9-0.1-1.3-0.3c-0.9-0.5-1.5-1.4-1.6-2.5c0-0.4,0.1-0.8,0.3-1.2l10.6-23l1.6-4c-4-2.8-6.7-6.2-6.7-11.1
			c0-5.4,3.8-8.6,8-8.6c4.8,0,7.7,3.4,7.7,8.7c0,2.1-0.5,3.3-2.1,8.5c3.9,1.8,7.9,3.3,12,4.6c1.9,0.5,3.6,1,5,1.6
			c1.5,0.6,2.2,2.3,1.6,3.8c-1.7,4.4-8.1,23.2-8.9,26.5c-0.7,2.4-1.1,4.8-1.2,7.3c0,3.3,1.1,5.5,4,5.5c6.5,0,11.5-7.4,19-24.4
			c0.5-1,1.5-1.7,2.6-1.7c0.4,0,0.8,0.1,1.2,0.3C703.2,691.3,703.8,692.3,703.9,693.4z M661.3,655.8c-1.3-0.1-2.4,0.8-2.5,2
			c0,0.2,0,0.3,0,0.5c0.1,2.4,1.3,4.6,3.2,6.1c0.7-1.8,1.2-3.6,1.5-5.5C663.5,656.5,662.4,655.8,661.3,655.8L661.3,655.8z"/>
		<path class="st5" d="M784.9,695c-4.9,11.1-12.1,27.3-23.9,27.3c-6.5,0-9.6-4.6-9.6-11.1c0-12,10.3-28.4,10.3-39.2
			c0-3.8-1.6-6.9-6.9-6.9c-7.7,0-18,17.3-21.8,28c-0.3,0.8-9.1,26.7-9,26.4c-0.4,1.1-1.4,1.9-2.6,1.9c-1.5,0-2.8-1.2-2.8-2.8
			c0-0.3,0.1-0.6,0.2-0.9c0.1-0.4,8.9-26.3,9-26.5c2.8-8,4.8-14,4.8-18.6c0-4.9-1.9-7.4-6.6-7.4c-3.7,0-7.7,4.2-11.5,9.6
			c-2.4,3.6-10.3,18.1-11.1,20.2l-9,25.5c-0.5,1.5-2.1,2.3-3.6,1.8c-1.5-0.5-2.2-2.1-1.7-3.6c6.7-19,13.6-38,20.3-57
			c0.4-1.1,1.4-1.9,2.6-1.8c1.5,0,2.8,1.2,2.8,2.8c0,0.3-0.1,0.6-0.2,0.9c-0.5,1.2-1,2.3-1.3,3.6c3.8-4.5,8-7.5,12.5-7.5
			c7.9,0,12.1,5.2,12.1,12.2c3.8-6.1,10.6-12.2,16.8-12.2c9.5,0,12.4,5.4,12.4,12.4c0,12.7-10.2,27.8-10.2,39.2c0,3.8,1.2,5.5,4,5.5
			c6.5,0,11.8-7.8,18.9-24.4c0.5-1,1.5-1.7,2.6-1.7c1.5,0.1,2.7,1.3,2.8,2.8C785.3,694,785.1,694.5,784.9,695z"/>
		<path class="st5" d="M838.5,693.4c0,0.4-0.1,0.8-0.3,1.2l-0.1,0.4c-5,11.1-12.1,27.3-24,27.3c-6.3,0-9.5-4.6-9.5-11.1
			c-5.3,7.4-10.8,11.1-16.5,11.1c-7.4,0-10.8-6.3-10.8-14.3c0-17.3,13.3-48.2,29.2-48.2c5.5,0,9.6,2.2,12,7c0.8-2.2,1.6-4.2,2.2-6
			c0.4-1.1,1.5-1.7,2.6-1.7c1.5,0,2.7,1.2,2.7,2.6c0,0.4-0.1,0.7-0.2,1.1l-6.6,17.7c-4.8,13.3-9.1,24.8-9.1,30.6c0,4,1.2,5.5,4,5.5
			c8.2,0,14.5-14.3,18.9-24l0.1-0.4c0.4-1,1.4-1.7,2.5-1.7c0.4,0,0.8,0.1,1.2,0.3C837.9,691.3,838.5,692.3,838.5,693.4z
			 M811.8,683.5l3.2-8.5c-0.3-6.1-3.7-9.6-8.5-9.6c-12.1,0.3-23.4,28.7-23.6,41.7c0,5.8,1.2,9.6,5.2,9.6
			C798.7,716.8,806.5,696.9,811.8,683.5z"/>
		<path class="st5" d="M887.1,693.4c0,0.4-0.1,0.8-0.3,1.2c-8.6,19.7-15.2,27.7-24.2,27.7h-0.1c-6.2,0-9.4-4.6-9.4-11.1
			c0-2.9,0.5-5.8,1.3-8.6c1-4.2,6.9-21.8,8-24.7c-10-3.3-11.5-3.8-14.4-5.3c-0.5,1.6-1.4,3.4-12,26.5c-0.4,0.9-1.3,1.6-2.4,1.6
			c-0.5,0-0.9-0.1-1.3-0.3c-0.9-0.5-1.5-1.4-1.6-2.5c0-0.4,0.1-0.8,0.3-1.2l10.6-23l1.6-4c-4-2.8-6.7-6.2-6.7-11.1
			c0-5.4,3.8-8.6,8-8.6c4.8,0,7.7,3.4,7.7,8.7c0,2.1-0.5,3.3-2.1,8.5c3.9,1.8,7.9,3.3,12,4.6c1.8,0.5,3.6,1,5,1.6
			c1.5,0.6,2.2,2.3,1.6,3.8c-1.7,4.4-8.1,23.2-8.8,26.5c-0.7,2.4-1.1,4.8-1.2,7.3c0,3.3,1.1,5.5,4,5.5c6.5,0,11.5-7.4,19-24.4
			c0.4-1,1.4-1.7,2.5-1.7c0.4,0,0.8,0.1,1.2,0.3C886.5,691.3,887.1,692.3,887.1,693.4z M844.6,655.8c-1.3-0.1-2.4,0.8-2.5,2
			c0,0.2,0,0.3,0,0.5c0.1,2.4,1.3,4.6,3.2,6.1c0.7-1.8,1.2-3.6,1.5-5.5C846.7,656.5,845.7,655.8,844.6,655.8L844.6,655.8z"/>
		<path class="st5" d="M873.9,722.2c-1.5-0.5-2.2-2.1-1.7-3.6c0,0,0,0,0,0c22-61.4,27.2-76,28.3-79.1c0.4-1,1.4-1.7,2.5-1.7
			c1.5-0.1,2.9,1.1,2.9,2.7c0,0.3,0,0.7-0.1,1c-11.5,32.3-19.4,54.9-28.3,78.8C876.9,721.7,875.4,722.5,873.9,722.2z M939.3,693.4
			c0,0.4-0.1,0.8-0.3,1.2c-6.3,14.1-13.3,27.7-24.3,27.7c-5.4,0-9.8-4.4-9.8-9.8c0-0.1,0-0.1,0-0.2c0.1-3,0.3-5.9,0.8-8.9
			c0.5-2.6,0.7-5.2,0.7-7.8c-0.1-3.4-1.3-5.9-5.8-5.9c-3.8,0-5.8,4-8.3,4c-2.9,0-3.6-2.9-1.6-4.9c1.7-1.7,13.9-12.4,31.4-28.5
			c0.5-0.5,1.2-0.7,1.9-0.7c1.6,0,2.8,1.2,2.9,2.8c0,0.8-0.4,1.5-0.9,2l-22,20.1c6.2,1,7.9,5.5,8,11.2c0,3-1.5,13.2-1.5,16.2
			c0,2.4,1.5,4.9,4.2,4.9c7.8,0,14.1-13.1,19.1-24.4c0.4-1,1.4-1.7,2.5-1.7c0.4,0,0.8,0.1,1.2,0.3
			C938.6,691.4,939.3,692.3,939.3,693.4z"/>
		<path class="st5" d="M992,693.4c0,0.4-0.1,0.8-0.3,1.2c-9,19.9-15.2,27.7-24.2,27.7c-6.3,0-9.5-4.6-9.5-11.1
			c0-12.4,10.3-27.7,10.3-39.2c0-3.8-1.7-6.9-6.9-6.9c-8,0-18.1,17.8-22.3,29l-9.2,26.1c-0.5,1.5-2.1,2.3-3.6,1.9
			c-1.4-0.5-2.2-2-1.8-3.5c0,0,0-0.1,0-0.1c6.9-19,15.2-42.9,20.3-57c0.4-1.1,1.4-1.9,2.6-1.8c1.5,0,2.8,1.2,2.8,2.7
			c0,0.3,0,0.6-0.2,0.9l-1.1,2.6c3.8-4,7.9-6.5,12.3-6.5c9.5,0,12.4,5.4,12.4,12.4c0,11.8-10.3,29-10.3,39.2c0,3.8,1.2,5.5,4,5.5
			c6.2,0,11-7,19-24.4c0.4-1,1.4-1.7,2.5-1.7c0.4,0,0.8,0.1,1.2,0.3C991.3,691.3,992,692.3,992,693.4z"/>
		<path class="st5" d="M1045.2,693.4c0,0.4-0.1,0.8-0.3,1.2l-0.1,0.4c-5,11.1-12.1,27.3-24,27.3c-6.3,0-9.5-4.6-9.5-11.1
			c-5.3,7.4-10.8,11.1-16.5,11.1c-7.4,0-10.8-6.3-10.8-14.3c0-17.3,13.3-48.2,29.2-48.2c5.5,0,9.6,2.2,12,7c0.8-2.2,1.6-4.2,2.2-6
			c0.4-1.1,1.5-1.7,2.6-1.7c1.5,0,2.7,1.2,2.7,2.7c0,0.4-0.1,0.7-0.2,1l-6.6,17.7c-4.7,13.3-9.1,24.8-9.1,30.6c0,4,1.2,5.5,4,5.5
			c8.2,0,14.5-14.3,18.9-24l0.1-0.4c0.4-1,1.4-1.7,2.5-1.7c0.4,0,0.8,0.1,1.2,0.3C1044.5,691.4,1045.1,692.3,1045.2,693.4z
			 M1018.4,683.5l3.2-8.5c-0.3-6.1-3.7-9.6-8.5-9.6c-12.2,0.3-23.4,28.7-23.6,41.7c0,5.8,1.2,9.6,5.2,9.6
			C1005.3,716.8,1013.1,696.9,1018.4,683.5z"/>
		<path class="st5" d="M1102,693.4c0,0.4-0.1,0.8-0.3,1.2c-7.7,16.5-15.1,27.7-27.2,27.7c-6.2,0-9.8-4.2-9.8-11.6
			c-4.6,6.6-10,11.6-16.8,11.6c-7.4,0-10.8-6.3-10.8-14.3c0-17.3,13.2-48.2,29.2-48.2c5.9,0,9.8,2.6,11.9,6.7l2.5-6.9l7-20.2
			c0.4-1,1.4-1.7,2.5-1.7c1.5,0,2.8,1.2,2.8,2.8c0,0.3-0.1,0.6-0.2,0.9c-1.3,3.8-17,48.7-18.2,52.4c-2,6.1-4.4,13.9-4.4,17.3
			c0,3.2,1.2,5.5,4.2,5.5c9.5,0,15.8-11,22-24.6c0.5-1,1.6-1.6,2.6-1.6c0.3,0,0.7,0.1,1,0.3C1101.2,691.3,1101.9,692.3,1102,693.4z
			 M1071.6,683.5c1.2-2.8,2.1-5.4,3-7.5c0.1-0.3,0.1-0.6,0.1-0.9c-0.3-6.1-3.3-9.6-8.4-9.6c-12.2,0.4-23.4,28.7-23.6,41.7
			c0,5.8,1.2,9.6,5.2,9.6C1058.5,716.8,1066.3,696.9,1071.6,683.5L1071.6,683.5z"/>
		<defs>
			
				<filter id="Adobe_OpacityMaskFilter_00000034079172123878371680000001048206553626551204_" filterUnits="userSpaceOnUse" x="500.1" y="618.4" width="601.8" height="108.9">
				<feColorMatrix  type="matrix" values="1 0 0 0 0  0 1 0 0 0  0 0 1 0 0  0 0 0 1 0"/>
			</filter>
		</defs>
		
			<mask maskUnits="userSpaceOnUse" x="500.1" y="618.4" width="601.8" height="108.9" id="b0829df3-3676-48ac-a96f-c8377bad6574_00000093151626247450956560000009858430267116690607_">
			<g class="st6">
				<g transform="translate(429 300)">
					
						<image style="overflow:visible;enable-background:new    ;" width="606" height="114" xlink:href="CB83369629238FE8.png"  transform="matrix(1 0 0 1 69 316)">
					</image>
				</g>
			</g>
		</mask>
		<g class="st7">
			<g class="st3">
				<path class="st4" d="M570.5,619.6c4.6,0,7.8,2.9,7.8,7.1c0,6.2-9.5,11.2-18.9,13.7c-5.7,14.4-18.9,56.1-18.9,68.9
					c0,7,2,12.3,8.1,12.3c13.9,0,24.6-25.5,35-50.7c11-26.4,21.8-52.5,38.4-52.5c1.6,0,2.9,1.2,2.9,2.7c0,0,0,0,0,0
					c0,1.5-1.1,2.7-2.6,2.8c0,0-0.1,0-0.1,0c-12.9-0.1-23.1,24.3-33.4,49.1c-11.2,26.9-22.6,54.3-40.1,54.3
					c-10.3,0-13.6-7.8-13.6-17.7c0-14.4,11.9-51.5,18-68c-2.6,0.5-5.3,0.9-8.1,1.3c-16.6,2.6-39.2,5.8-39.2,21.7
					c0,7,4.6,11.9,10.4,11.9c1.6,0,2.8,1.3,2.8,2.9c0,0,0,0,0,0c-0.1,1.5-1.3,2.7-2.8,2.6c0,0-0.1,0-0.1,0
					c-9.2,0-15.9-7.8-15.9-17.7c0-19.9,24.8-23.9,43.8-26.8c4-0.7,7.9-1.3,11.4-2C558.2,627.9,563.8,619.6,570.5,619.6z
					 M572.3,626.7c0-1-0.8-1.8-1.7-1.8c0,0-0.1,0-0.1,0c-2.9,0-6.3,4.5-8.5,9C567.6,632.6,572.3,628.8,572.3,626.7L572.3,626.7z"/>
				<path class="st4" d="M655.3,693.4c0,0.4-0.1,0.8-0.3,1.2l-0.1,0.4c-5,11.1-12.2,27.3-24,27.3c-6.3,0-9.5-4.6-9.5-11.1
					c-5.3,7.4-10.8,11.1-16.5,11.1c-7.4,0-10.9-6.3-10.9-14.3c0-17.3,13.3-48.2,29.2-48.2c5.5,0,9.6,2.2,12,7c0.8-2.2,1.6-4.2,2.2-6
					c0.4-1.1,1.5-1.7,2.6-1.7c1.5,0,2.7,1.2,2.7,2.6c0,0.4-0.1,0.7-0.2,1.1l-6.6,17.7c-4.8,13.3-9.1,24.8-9.1,30.6
					c0,4,1.2,5.5,4,5.5c8.2,0,14.5-14.3,18.9-24l0.1-0.4c0.4-1,1.4-1.7,2.5-1.7c0.4,0,0.8,0.1,1.2,0.3
					C654.6,691.3,655.2,692.3,655.3,693.4z M628.5,683.5l3.2-8.5c-0.3-6.1-3.7-9.6-8.5-9.6c-12.1,0.3-23.4,28.7-23.6,41.7
					c0,5.8,1.2,9.6,5.1,9.6C615.4,716.8,623.2,696.9,628.5,683.5z M621,639.1c1-6.3,6.5-11,12.9-11.1c6-0.1,11,4.6,11.1,10.7
					c0,0.7,0,1.4-0.1,2c-1.1,6.4-6.5,11.1-12.9,11.2c-6,0.1-11-4.6-11.1-10.6C620.8,640.5,620.9,639.8,621,639.1z M639.3,639.9
					c0.6-2.9-1.3-5.7-4.1-6.2c-0.4-0.1-0.9-0.1-1.3-0.1c-3.7,0.1-6.7,2.8-7.4,6.3c-0.5,3.7,1.7,6.5,5.4,6.5
					C635.6,646.2,638.7,643.5,639.3,639.9L639.3,639.9z"/>
				<path class="st4" d="M703.9,693.4c0,0.4-0.1,0.8-0.3,1.2c-8.6,19.7-15.2,27.7-24.2,27.7h-0.1c-6.2,0-9.4-4.6-9.4-11.1
					c0-2.9,0.5-5.8,1.3-8.6c1-4.2,6.9-21.8,8-24.7c-10-3.3-11.5-3.8-14.4-5.3c-0.5,1.6-1.5,3.4-12,26.5c-0.4,0.9-1.3,1.6-2.4,1.6
					c-0.5,0-0.9-0.1-1.3-0.3c-0.9-0.5-1.5-1.4-1.6-2.5c0-0.4,0.1-0.8,0.3-1.2l10.6-23l1.6-4c-4-2.8-6.7-6.2-6.7-11.1
					c0-5.4,3.8-8.6,8-8.6c4.8,0,7.7,3.4,7.7,8.7c0,2.1-0.5,3.3-2.1,8.5c3.9,1.8,7.9,3.3,12,4.6c1.9,0.5,3.6,1,5,1.6
					c1.5,0.6,2.2,2.3,1.6,3.8c-1.7,4.4-8.1,23.2-8.9,26.5c-0.7,2.4-1.1,4.8-1.2,7.3c0,3.3,1.1,5.5,4,5.5c6.5,0,11.5-7.4,19-24.4
					c0.5-1,1.5-1.7,2.6-1.7c0.4,0,0.8,0.1,1.2,0.3C703.2,691.3,703.8,692.3,703.9,693.4z M661.3,655.8c-1.3-0.1-2.4,0.8-2.5,2
					c0,0.2,0,0.3,0,0.5c0.1,2.4,1.3,4.6,3.2,6.1c0.7-1.8,1.2-3.6,1.5-5.5C663.5,656.5,662.4,655.8,661.3,655.8L661.3,655.8z"/>
				<path class="st4" d="M784.9,695c-4.9,11.1-12.1,27.3-23.9,27.3c-6.5,0-9.6-4.6-9.6-11.1c0-12,10.3-28.4,10.3-39.2
					c0-3.8-1.6-6.9-6.9-6.9c-7.7,0-18,17.3-21.8,28c-0.3,0.8-9.1,26.7-9,26.4c-0.4,1.1-1.4,1.9-2.6,1.9c-1.5,0-2.8-1.2-2.8-2.8
					c0-0.3,0.1-0.6,0.2-0.9c0.1-0.4,8.9-26.3,9-26.5c2.8-8,4.8-14,4.8-18.6c0-4.9-1.9-7.4-6.6-7.4c-3.7,0-7.7,4.2-11.5,9.6
					c-2.4,3.6-10.3,18.1-11.1,20.2l-9,25.5c-0.5,1.5-2.1,2.3-3.6,1.8c-1.5-0.5-2.2-2.1-1.7-3.6c6.7-19,13.6-38,20.3-57
					c0.4-1.1,1.4-1.9,2.6-1.8c1.5,0,2.8,1.2,2.8,2.8c0,0.3-0.1,0.6-0.2,0.9c-0.5,1.2-1,2.3-1.3,3.6c3.8-4.5,8-7.5,12.5-7.5
					c7.9,0,12.1,5.2,12.1,12.2c3.8-6.1,10.6-12.2,16.8-12.2c9.5,0,12.4,5.4,12.4,12.4c0,12.7-10.2,27.8-10.2,39.2
					c0,3.8,1.2,5.5,4,5.5c6.5,0,11.8-7.8,18.9-24.4c0.5-1,1.5-1.7,2.6-1.7c1.5,0.1,2.7,1.3,2.8,2.8C785.3,694,785.1,694.5,784.9,695
					z"/>
				<path class="st4" d="M838.5,693.4c0,0.4-0.1,0.8-0.3,1.2l-0.1,0.4c-5,11.1-12.1,27.3-24,27.3c-6.3,0-9.5-4.6-9.5-11.1
					c-5.3,7.4-10.8,11.1-16.5,11.1c-7.4,0-10.8-6.3-10.8-14.3c0-17.3,13.3-48.2,29.2-48.2c5.5,0,9.6,2.2,12,7c0.8-2.2,1.6-4.2,2.2-6
					c0.4-1.1,1.5-1.7,2.6-1.7c1.5,0,2.7,1.2,2.7,2.6c0,0.4-0.1,0.7-0.2,1.1l-6.6,17.7c-4.8,13.3-9.1,24.8-9.1,30.6
					c0,4,1.2,5.5,4,5.5c8.2,0,14.5-14.3,18.9-24l0.1-0.4c0.4-1,1.4-1.7,2.5-1.7c0.4,0,0.8,0.1,1.2,0.3
					C837.9,691.3,838.5,692.3,838.5,693.4z M811.8,683.5l3.2-8.5c-0.3-6.1-3.7-9.6-8.5-9.6c-12.1,0.3-23.4,28.7-23.6,41.7
					c0,5.8,1.2,9.6,5.2,9.6C798.7,716.8,806.5,696.9,811.8,683.5z"/>
				<path class="st4" d="M887.1,693.4c0,0.4-0.1,0.8-0.3,1.2c-8.6,19.7-15.2,27.7-24.2,27.7h-0.1c-6.2,0-9.4-4.6-9.4-11.1
					c0-2.9,0.5-5.8,1.3-8.6c1-4.2,6.9-21.8,8-24.7c-10-3.3-11.5-3.8-14.4-5.3c-0.5,1.6-1.4,3.4-12,26.5c-0.4,0.9-1.3,1.6-2.4,1.6
					c-0.5,0-0.9-0.1-1.3-0.3c-0.9-0.5-1.5-1.4-1.6-2.5c0-0.4,0.1-0.8,0.3-1.2l10.6-23l1.6-4c-4-2.8-6.7-6.2-6.7-11.1
					c0-5.4,3.8-8.6,8-8.6c4.8,0,7.7,3.4,7.7,8.7c0,2.1-0.5,3.3-2.1,8.5c3.9,1.8,7.9,3.3,12,4.6c1.8,0.5,3.6,1,5,1.6
					c1.5,0.6,2.2,2.3,1.6,3.8c-1.7,4.4-8.1,23.2-8.8,26.5c-0.7,2.4-1.1,4.8-1.2,7.3c0,3.3,1.1,5.5,4,5.5c6.5,0,11.5-7.4,19-24.4
					c0.4-1,1.4-1.7,2.5-1.7c0.4,0,0.8,0.1,1.2,0.3C886.5,691.3,887.1,692.3,887.1,693.4z M844.6,655.8c-1.3-0.1-2.4,0.8-2.5,2
					c0,0.2,0,0.3,0,0.5c0.1,2.4,1.3,4.6,3.2,6.1c0.7-1.8,1.2-3.6,1.5-5.5C846.7,656.5,845.7,655.8,844.6,655.8L844.6,655.8z"/>
				<path class="st4" d="M873.9,722.2c-1.5-0.5-2.2-2.1-1.7-3.6c0,0,0,0,0,0c22-61.4,27.2-76,28.3-79.1c0.4-1,1.4-1.7,2.5-1.7
					c1.5-0.1,2.9,1.1,2.9,2.7c0,0.3,0,0.7-0.1,1c-11.5,32.3-19.4,54.9-28.3,78.8C876.9,721.7,875.4,722.5,873.9,722.2z M939.3,693.4
					c0,0.4-0.1,0.8-0.3,1.2c-6.3,14.1-13.3,27.7-24.3,27.7c-5.4,0-9.8-4.4-9.8-9.8c0-0.1,0-0.1,0-0.2c0.1-3,0.3-5.9,0.8-8.9
					c0.5-2.6,0.7-5.2,0.7-7.8c-0.1-3.4-1.3-5.9-5.8-5.9c-3.8,0-5.8,4-8.3,4c-2.9,0-3.6-2.9-1.6-4.9c1.7-1.7,13.9-12.4,31.4-28.5
					c0.5-0.5,1.2-0.7,1.9-0.7c1.6,0,2.8,1.2,2.9,2.8c0,0.8-0.4,1.5-0.9,2l-22,20.1c6.2,1,7.9,5.5,8,11.2c0,3-1.5,13.2-1.5,16.2
					c0,2.4,1.5,4.9,4.2,4.9c7.8,0,14.1-13.1,19.1-24.4c0.4-1,1.4-1.7,2.5-1.7c0.4,0,0.8,0.1,1.2,0.3
					C938.6,691.4,939.3,692.3,939.3,693.4z"/>
				<path class="st4" d="M992,693.4c0,0.4-0.1,0.8-0.3,1.2c-9,19.9-15.2,27.7-24.2,27.7c-6.3,0-9.5-4.6-9.5-11.1
					c0-12.4,10.3-27.7,10.3-39.2c0-3.8-1.7-6.9-6.9-6.9c-8,0-18.1,17.8-22.3,29l-9.2,26.1c-0.5,1.5-2.1,2.3-3.6,1.9
					c-1.4-0.5-2.2-2-1.8-3.5c0,0,0-0.1,0-0.1c6.9-19,15.2-42.9,20.3-57c0.4-1.1,1.4-1.9,2.6-1.8c1.5,0,2.8,1.2,2.8,2.7
					c0,0.3,0,0.6-0.2,0.9l-1.1,2.6c3.8-4,7.9-6.5,12.3-6.5c9.5,0,12.4,5.4,12.4,12.4c0,11.8-10.3,29-10.3,39.2c0,3.8,1.2,5.5,4,5.5
					c6.2,0,11-7,19-24.4c0.4-1,1.4-1.7,2.5-1.7c0.4,0,0.8,0.1,1.2,0.3C991.3,691.3,992,692.3,992,693.4z"/>
				<path class="st4" d="M1045.2,693.4c0,0.4-0.1,0.8-0.3,1.2l-0.1,0.4c-5,11.1-12.1,27.3-24,27.3c-6.3,0-9.5-4.6-9.5-11.1
					c-5.3,7.4-10.8,11.1-16.5,11.1c-7.4,0-10.8-6.3-10.8-14.3c0-17.3,13.3-48.2,29.2-48.2c5.5,0,9.6,2.2,12,7c0.8-2.2,1.6-4.2,2.2-6
					c0.4-1.1,1.5-1.7,2.6-1.7c1.5,0,2.7,1.2,2.7,2.7c0,0.4-0.1,0.7-0.2,1l-6.6,17.7c-4.7,13.3-9.1,24.8-9.1,30.6c0,4,1.2,5.5,4,5.5
					c8.2,0,14.5-14.3,18.9-24l0.1-0.4c0.4-1,1.4-1.7,2.5-1.7c0.4,0,0.8,0.1,1.2,0.3C1044.5,691.4,1045.1,692.3,1045.2,693.4z
					 M1018.4,683.5l3.2-8.5c-0.3-6.1-3.7-9.6-8.5-9.6c-12.2,0.3-23.4,28.7-23.6,41.7c0,5.8,1.2,9.6,5.2,9.6
					C1005.3,716.8,1013.1,696.9,1018.4,683.5z"/>
				<path class="st4" d="M1102,693.4c0,0.4-0.1,0.8-0.3,1.2c-7.7,16.5-15.1,27.7-27.2,27.7c-6.2,0-9.8-4.2-9.8-11.6
					c-4.6,6.6-10,11.6-16.8,11.6c-7.4,0-10.8-6.3-10.8-14.3c0-17.3,13.2-48.2,29.2-48.2c5.9,0,9.8,2.6,11.9,6.7l2.5-6.9l7-20.2
					c0.4-1,1.4-1.7,2.5-1.7c1.5,0,2.8,1.2,2.8,2.8c0,0.3-0.1,0.6-0.2,0.9c-1.3,3.8-17,48.7-18.2,52.4c-2,6.1-4.4,13.9-4.4,17.3
					c0,3.2,1.2,5.5,4.2,5.5c9.5,0,15.8-11,22-24.6c0.5-1,1.6-1.6,2.6-1.6c0.3,0,0.7,0.1,1,0.3C1101.2,691.3,1101.9,692.3,1102,693.4
					z M1071.6,683.5c1.2-2.8,2.1-5.4,3-7.5c0.1-0.3,0.1-0.6,0.1-0.9c-0.3-6.1-3.3-9.6-8.4-9.6c-12.2,0.4-23.4,28.7-23.6,41.7
					c0,5.8,1.2,9.6,5.2,9.6C1058.5,716.8,1066.3,696.9,1071.6,683.5L1071.6,683.5z"/>
			</g>
		</g>
	</g>
</g>
</svg>
